<mxfile modified="2024-07-30T10:44:43.078Z" host="Electron" agent="Mozilla/5.0 (Windows NT 10.0; Win64; x64) AppleWebKit/537.36 (KHTML, like Gecko) draw.io/24.5.3 Chrome/124.0.6367.207 Electron/30.0.6 Safari/537.36" etag="ZEezD-ytpPBR20_cOF9f" version="24.5.3" type="device">
  <diagram id="WI9T0HZ2pTsCkuznbFz-" name="Page-1">
    <mxGraphModel dx="1430" dy="1404" grid="0" gridSize="10" guides="0" tooltips="1" connect="1" arrows="1" fold="1" page="1" pageScale="1" pageWidth="1169" pageHeight="827" math="0" shadow="0">
      <root>
        <mxCell id="0" />
        <mxCell id="1" parent="0" />
        <mxCell id="x5Qx7wWfgq4q1o_DWIzA-18" value="" style="rounded=0;whiteSpace=wrap;html=1;" parent="1" vertex="1">
          <mxGeometry x="486" y="-633" width="375" height="214" as="geometry" />
        </mxCell>
        <mxCell id="x5Qx7wWfgq4q1o_DWIzA-24" value="" style="edgeStyle=orthogonalEdgeStyle;rounded=0;orthogonalLoop=1;jettySize=auto;html=1;strokeColor=#FF8000;exitX=0.5;exitY=0;exitDx=0;exitDy=0;" parent="1" source="AcxdMaKK0mU5kZiv2lnr-31" target="x5Qx7wWfgq4q1o_DWIzA-1" edge="1">
          <mxGeometry relative="1" as="geometry">
            <mxPoint x="554" y="-363" as="targetPoint" />
            <Array as="points">
              <mxPoint x="640" y="-410" />
              <mxPoint x="546" y="-410" />
            </Array>
          </mxGeometry>
        </mxCell>
        <mxCell id="x5Qx7wWfgq4q1o_DWIzA-25" value="" style="edgeStyle=orthogonalEdgeStyle;rounded=0;orthogonalLoop=1;jettySize=auto;html=1;entryX=0;entryY=0.5;entryDx=0;entryDy=0;" parent="1" source="x5Qx7wWfgq4q1o_DWIzA-10" target="AcxdMaKK0mU5kZiv2lnr-31" edge="1">
          <mxGeometry relative="1" as="geometry">
            <Array as="points">
              <mxPoint x="545" y="-316" />
              <mxPoint x="587" y="-316" />
              <mxPoint x="587" y="-369" />
            </Array>
          </mxGeometry>
        </mxCell>
        <mxCell id="x5Qx7wWfgq4q1o_DWIzA-27" value="" style="edgeStyle=orthogonalEdgeStyle;rounded=0;orthogonalLoop=1;jettySize=auto;html=1;" parent="1" source="x5Qx7wWfgq4q1o_DWIzA-13" target="AcxdMaKK0mU5kZiv2lnr-31" edge="1">
          <mxGeometry relative="1" as="geometry">
            <mxPoint x="737.8000000000002" y="-302" as="sourcePoint" />
            <Array as="points">
              <mxPoint x="687" y="-275" />
              <mxPoint x="687" y="-365" />
            </Array>
          </mxGeometry>
        </mxCell>
        <mxCell id="AcxdMaKK0mU5kZiv2lnr-31" value="GitHub" style="shape=image;verticalLabelPosition=bottom;labelBackgroundColor=#ffffff;verticalAlign=top;aspect=fixed;imageAspect=0;image=data:image/svg+xml,PHN2ZyB4bWxuczpjYz0iaHR0cDovL2NyZWF0aXZlY29tbW9ucy5vcmcvbnMjIiB4bWxuczpkYz0iaHR0cDovL3B1cmwub3JnL2RjL2VsZW1lbnRzLzEuMS8iIHhtbG5zOmlua3NjYXBlPSJodHRwOi8vd3d3Lmlua3NjYXBlLm9yZy9uYW1lc3BhY2VzL2lua3NjYXBlIiB4bWxuczpyZGY9Imh0dHA6Ly93d3cudzMub3JnLzE5OTkvMDIvMjItcmRmLXN5bnRheC1ucyMiIHhtbG5zOnNvZGlwb2RpPSJodHRwOi8vc29kaXBvZGkuc291cmNlZm9yZ2UubmV0L0RURC9zb2RpcG9kaS0wLmR0ZCIgeG1sbnM6c3ZnPSJodHRwOi8vd3d3LnczLm9yZy8yMDAwL3N2ZyIgeG1sbnM9Imh0dHA6Ly93d3cudzMub3JnLzIwMDAvc3ZnIiB4bWxuczp4bGluaz0iaHR0cDovL3d3dy53My5vcmcvMTk5OS94bGluayIgdmVyc2lvbj0iMS4xIiBpZD0ic3ZnMTc1NjcxIiBpbmtzY2FwZTp2ZXJzaW9uPSIwLjkyLjMgKDI0MDU1NDYsIDIwMTgtMDMtMTEpIiBzb2RpcG9kaTpkb2NuYW1lPSJnaXRodWIuc3ZnIiB4PSIwcHgiIHk9IjBweCIgdmlld0JveD0iMCAwIDQ1LjI3IDQ1LjI5IiBzdHlsZT0iZW5hYmxlLWJhY2tncm91bmQ6bmV3IDAgMCA0NS4yNyA0NS4yOTsiIHhtbDpzcGFjZT0icHJlc2VydmUiPiYjeGE7PHNvZGlwb2RpOm5hbWVkdmlldyBib3JkZXJjb2xvcj0iIzY2NjY2NiIgYm9yZGVyb3BhY2l0eT0iMSIgZml0LW1hcmdpbi1ib3R0b209IjAiIGZpdC1tYXJnaW4tbGVmdD0iMCIgZml0LW1hcmdpbi1yaWdodD0iMCIgZml0LW1hcmdpbi10b3A9IjAiIGdyaWR0b2xlcmFuY2U9IjEwIiBndWlkZXRvbGVyYW5jZT0iMTAiIGlkPSJuYW1lZHZpZXcxNzU2NzMiIGlua3NjYXBlOmN1cnJlbnQtbGF5ZXI9InN2ZzE3NTY3MSIgaW5rc2NhcGU6Y3g9IjMwLjE3ODAyNSIgaW5rc2NhcGU6Y3k9IjMwLjE5NDMxOSIgaW5rc2NhcGU6cGFnZW9wYWNpdHk9IjAiIGlua3NjYXBlOnBhZ2VzaGFkb3c9IjIiIGlua3NjYXBlOndpbmRvdy1oZWlnaHQ9IjEwMTciIGlua3NjYXBlOndpbmRvdy1tYXhpbWl6ZWQ9IjEiIGlua3NjYXBlOndpbmRvdy13aWR0aD0iMTkyMCIgaW5rc2NhcGU6d2luZG93LXg9Ii04IiBpbmtzY2FwZTp3aW5kb3cteT0iLTgiIGlua3NjYXBlOnpvb209IjEwLjA5NTE1OCIgb2JqZWN0dG9sZXJhbmNlPSIxMCIgcGFnZWNvbG9yPSIjZmZmZmZmIiBzaG93Z3JpZD0iZmFsc2UiPiYjeGE7CTwvc29kaXBvZGk6bmFtZWR2aWV3PiYjeGE7PGcgaWQ9ImcxNzU2NjkiIHRyYW5zZm9ybT0idHJhbnNsYXRlKC05LjU2MjU0MTcsLTkuNTYxMzEpIj4mI3hhOwk8dGl0bGUgaWQ9InRpdGxlMTc1NjU5Ij5QYWdlLTE8L3RpdGxlPiYjeGE7CTxnIGlkPSJncm91cDIyNTAtMSIgdHJhbnNmb3JtPSJ0cmFuc2xhdGUoOS41NjMwOCwtOS4zNzg2OSkiPiYjeGE7CQk8dGl0bGUgaWQ9InRpdGxlMTc1NjYxIj5HaXRIdWI8L3RpdGxlPiYjeGE7CQk8ZyBpZD0ic2hhcGUyMjUxLTIiPiYjeGE7CQkJPHRpdGxlIGlkPSJ0aXRsZTE3NTY2MyI+U2hlZXQuMjI1MTwvdGl0bGU+JiN4YTsJCQk8cGF0aCBpZD0icGF0aDE3NTY2NSIgaW5rc2NhcGU6Y29ubmVjdG9yLWN1cnZhdHVyZT0iMCIgZD0iTTIyLjYzLDE4Ljk0QzEwLjE0LDE4Ljk0LDAsMjkuMzMsMCw0Mi4xNSAgICAgYy0wLjA3LDkuODksNi4xNSwxOC43MywxNS40OCwyMi4wMWMxLjEzLDAuMjIsMS41NC0wLjUsMS41NC0xLjExYzAtMC42MiwwLTIuMDEsMC0zLjk1Yy02LjI5LDEuNDEtNy42Mi0zLjExLTcuNjItMy4xMSAgICAgYy0xLjAzLTIuNjgtMi41MS0zLjQtMi41MS0zLjRjLTIuMDYtMS40MSwwLjE1LTEuNDEsMC4xNS0xLjQxYzIuMjcsMC4xNiwzLjQ3LDIuMzksMy40NywyLjM5YzIuMDIsMy41NCw1LjMsMi41Miw2LjU4LDEuOTMgICAgIGMwLjEtMS4xNywwLjYtMi4yNiwxLjQyLTMuMUMxMy40OCw1MS44MSw4LjIsNDkuODIsOC4yLDQwLjkyYy0wLjA0LTIuMjksMC43OS00LjUxLDIuMzItNi4yMmMtMC42OS0yLTAuNjEtNC4xOSwwLjIyLTYuMTQgICAgIGMwLDAsMS45MS0wLjYyLDYuMjMsMi40YzMuNy0xLjA0LDcuNjItMS4wNCwxMS4zMiwwYzQuMzItMyw2LjIyLTIuMzcsNi4yMi0yLjM3YzAuODMsMS45NSwwLjkxLDQuMTQsMC4yMiw2LjE0ICAgICBjMS41MywxLjcsMi4zNywzLjkzLDIuMzMsNi4yMmMwLDguOTEtNS4yOSwxMC44OC0xMC4zMywxMS40NWMwLjgxLDAuNzEsMS41MywyLjEyLDEuNTMsNC4zYzAsMy4xMSwwLDUuNjEsMCw2LjM3ICAgICBjMCwwLjYyLDAuNDEsMS4zNCwxLjU2LDEuMTJjOS4zMy0zLjMsMTUuNTMtMTIuMTUsMTUuNDUtMjIuMDRDNDUuMjcsMjkuMzMsMzUuMTMsMTguOTQsMjIuNjMsMTguOTR6Ii8+JiN4YTsJCTwvZz4mI3hhOwk8L2c+JiN4YTs8L2c+JiN4YTs8L3N2Zz4=;spacingTop=4;clipPath=inset(0% 0% 0% 0.33% round 5%);" parent="1" vertex="1">
          <mxGeometry x="610" y="-399" width="59.800000000000004" height="60" as="geometry" />
        </mxCell>
        <mxCell id="x5Qx7wWfgq4q1o_DWIzA-21" value="" style="edgeStyle=orthogonalEdgeStyle;rounded=0;orthogonalLoop=1;jettySize=auto;html=1;strokeColor=#007FFF;entryX=0.5;entryY=1;entryDx=0;entryDy=0;" parent="1" source="AcxdMaKK0mU5kZiv2lnr-37" target="x5Qx7wWfgq4q1o_DWIzA-1" edge="1">
          <mxGeometry relative="1" as="geometry">
            <Array as="points">
              <mxPoint x="494" y="-494" />
              <mxPoint x="494" y="-321" />
              <mxPoint x="546" y="-321" />
              <mxPoint x="546" y="-338" />
            </Array>
          </mxGeometry>
        </mxCell>
        <mxCell id="AcxdMaKK0mU5kZiv2lnr-37" value="Visual Studio&#xa;Code" style="shape=image;verticalLabelPosition=bottom;labelBackgroundColor=none;verticalAlign=top;aspect=fixed;imageAspect=0;image=data:image/svg+xml,PHN2ZyB4bWxuczpkYz0iaHR0cDovL3B1cmwub3JnL2RjL2VsZW1lbnRzLzEuMS8iIHhtbG5zOmNjPSJodHRwOi8vY3JlYXRpdmVjb21tb25zLm9yZy9ucyMiIHhtbG5zOnJkZj0iaHR0cDovL3d3dy53My5vcmcvMTk5OS8wMi8yMi1yZGYtc3ludGF4LW5zIyIgeG1sbnM6c3ZnPSJodHRwOi8vd3d3LnczLm9yZy8yMDAwL3N2ZyIgeG1sbnM9Imh0dHA6Ly93d3cudzMub3JnLzIwMDAvc3ZnIiB4bWxuczp4bGluaz0iaHR0cDovL3d3dy53My5vcmcvMTk5OS94bGluayIgeG1sbnM6c29kaXBvZGk9Imh0dHA6Ly9zb2RpcG9kaS5zb3VyY2Vmb3JnZS5uZXQvRFREL3NvZGlwb2RpLTAuZHRkIiB4bWxuczppbmtzY2FwZT0iaHR0cDovL3d3dy5pbmtzY2FwZS5vcmcvbmFtZXNwYWNlcy9pbmtzY2FwZSIgdmVyc2lvbj0iMS4xIiBpZD0iTGF5ZXJfMSIgeD0iMHB4IiB5PSIwcHgiIHZpZXdCb3g9IjAgMCA1MC44NDk5OTggNTEuMDkiIHhtbDpzcGFjZT0icHJlc2VydmUiIHNvZGlwb2RpOmRvY25hbWU9InZpc3VhbF9zdHVkaW9fY29kZS5zdmciIHdpZHRoPSI1MC44NDk5OTgiIGhlaWdodD0iNTEuMDkiIGlua3NjYXBlOnZlcnNpb249IjAuOTIuMyAoMjQwNTU0NiwgMjAxOC0wMy0xMSkiPjxtZXRhZGF0YSBpZD0ibWV0YWRhdGE0MzE4OSI+PHJkZjpSREY+PGNjOldvcmsgcmRmOmFib3V0PSIiPjxkYzpmb3JtYXQ+aW1hZ2Uvc3ZnK3htbDwvZGM6Zm9ybWF0PjxkYzp0eXBlIHJkZjpyZXNvdXJjZT0iaHR0cDovL3B1cmwub3JnL2RjL2RjbWl0eXBlL1N0aWxsSW1hZ2UiLz48ZGM6dGl0bGUvPjwvY2M6V29yaz48L3JkZjpSREY+PC9tZXRhZGF0YT48ZGVmcyBpZD0iZGVmczQzMTg3Ii8+PHNvZGlwb2RpOm5hbWVkdmlldyBwYWdlY29sb3I9IiNmZmZmZmYiIGJvcmRlcmNvbG9yPSIjNjY2NjY2IiBib3JkZXJvcGFjaXR5PSIxIiBvYmplY3R0b2xlcmFuY2U9IjEwIiBncmlkdG9sZXJhbmNlPSIxMCIgZ3VpZGV0b2xlcmFuY2U9IjEwIiBpbmtzY2FwZTpwYWdlb3BhY2l0eT0iMCIgaW5rc2NhcGU6cGFnZXNoYWRvdz0iMiIgaW5rc2NhcGU6d2luZG93LXdpZHRoPSIxOTIwIiBpbmtzY2FwZTp3aW5kb3ctaGVpZ2h0PSIxMDE3IiBpZD0ibmFtZWR2aWV3NDMxODUiIHNob3dncmlkPSJmYWxzZSIgZml0LW1hcmdpbi10b3A9IjAiIGZpdC1tYXJnaW4tbGVmdD0iMCIgZml0LW1hcmdpbi1yaWdodD0iMCIgZml0LW1hcmdpbi1ib3R0b209IjAiIGlua3NjYXBlOnpvb209IjEuMDMwMzAzIiBpbmtzY2FwZTpjeD0iLTYuNTU1IiBpbmtzY2FwZTpjeT0iLTI5Ni4wNyIgaW5rc2NhcGU6d2luZG93LXg9Ii04IiBpbmtzY2FwZTp3aW5kb3cteT0iLTgiIGlua3NjYXBlOndpbmRvdy1tYXhpbWl6ZWQ9IjEiIGlua3NjYXBlOmN1cnJlbnQtbGF5ZXI9IkxheWVyXzEiLz4mI3hhOyYjeGE7PGcgaWQ9Imc0MzE4MiIgdHJhbnNmb3JtPSJ0cmFuc2xhdGUoLTMwMy45MywtNzMuNTkpIj4mI3hhOwk8ZGVmcyBpZD0iZGVmczQzMTY3Ij4mI3hhOwkJPHJlY3QgaWQ9IlNWR0lEXzNfIiB4PSIzMDMuOTI5OTkiIHk9IjczLjU4OTk5NiIgd2lkdGg9IjUxLjI1IiBoZWlnaHQ9IjUxLjI1Ii8+JiN4YTsJPC9kZWZzPiYjeGE7CTxjbGlwUGF0aCBpZD0iU1ZHSURfNF8iPiYjeGE7CQk8dXNlIHhsaW5rOmhyZWY9IiNTVkdJRF8zXyIgc3R5bGU9Im92ZXJmbG93OnZpc2libGUiIGlkPSJ1c2U0MzE2OSIgeD0iMCIgeT0iMCIgd2lkdGg9IjEwMCUiIGhlaWdodD0iMTAwJSIvPiYjeGE7CTwvY2xpcFBhdGg+JiN4YTsJPGcgY2xpcC1wYXRoPSJ1cmwoI1NWR0lEXzRfKSIgaWQ9Imc0MzE4MCI+JiN4YTsJCTxkZWZzIGlkPSJkZWZzNDMxNzMiPiYjeGE7CQkJPHJlY3QgaWQ9IlNWR0lEXzVfIiB4PSIzMDMuOTI5OTkiIHk9IjczLjU4OTk5NiIgd2lkdGg9IjUxLjI1IiBoZWlnaHQ9IjUxLjI1Ii8+JiN4YTsJCTwvZGVmcz4mI3hhOwkJPGNsaXBQYXRoIGlkPSJTVkdJRF82XyI+JiN4YTsJCQk8dXNlIHhsaW5rOmhyZWY9IiNTVkdJRF81XyIgc3R5bGU9Im92ZXJmbG93OnZpc2libGUiIGlkPSJ1c2U0MzE3NSIgeD0iMCIgeT0iMCIgd2lkdGg9IjEwMCUiIGhlaWdodD0iMTAwJSIvPiYjeGE7CQk8L2NsaXBQYXRoPiYjeGE7CQk8cGF0aCBzdHlsZT0iZmlsbDojMDE3OWNiIiBkPSJtIDMwOS44NywxMDUuMDIgNi4yMywtNS42NiAtNi4yMywtNi4yMyBWIDEwNSBaIG0gMzEuNTEsMy4zIFYgODkuOTUgbCAtMTEuODksOS4xOSAxMS44Nyw5LjE3IGggMC4wMiB6IG0gLTE5LjM1LC0zLjQ0IC0xMi42LDkuNzggLTUuNSwtMi43IFYgODYuMzUgbCA1LjQ4LC0yLjc2IDEyLjUyLDkuODQgMTkuODIsLTE5Ljg0IDEzLjAzLDUuMjMgdiA0MC41OSBsIC0xMi45OCw1LjI3IHoiIGNsaXAtcGF0aD0idXJsKCNTVkdJRF82XykiIGlkPSJwYXRoNDMxNzgiIGlua3NjYXBlOmNvbm5lY3Rvci1jdXJ2YXR1cmU9IjAiLz4mI3hhOwk8L2c+JiN4YTs8L2c+JiN4YTs8L3N2Zz4=;" parent="1" vertex="1">
          <mxGeometry x="513" y="-519.63" width="51" height="51" as="geometry" />
        </mxCell>
        <mxCell id="x5Qx7wWfgq4q1o_DWIzA-20" value="" style="edgeStyle=orthogonalEdgeStyle;rounded=0;orthogonalLoop=1;jettySize=auto;html=1;strokeColor=#007FFF;" parent="1" source="AcxdMaKK0mU5kZiv2lnr-38" target="AcxdMaKK0mU5kZiv2lnr-37" edge="1">
          <mxGeometry relative="1" as="geometry">
            <Array as="points">
              <mxPoint x="453" y="-542" />
              <mxPoint x="539" y="-542" />
            </Array>
          </mxGeometry>
        </mxCell>
        <mxCell id="x5Qx7wWfgq4q1o_DWIzA-37" value="" style="edgeStyle=orthogonalEdgeStyle;rounded=0;orthogonalLoop=1;jettySize=auto;html=1;strokeColor=#009900;" parent="1" source="AcxdMaKK0mU5kZiv2lnr-38" target="x5Qx7wWfgq4q1o_DWIzA-2" edge="1">
          <mxGeometry relative="1" as="geometry">
            <mxPoint x="452.5" y="-380.21000000000004" as="targetPoint" />
            <Array as="points">
              <mxPoint x="479" y="-494" />
              <mxPoint x="479" y="-421" />
              <mxPoint x="456" y="-421" />
            </Array>
          </mxGeometry>
        </mxCell>
        <mxCell id="AcxdMaKK0mU5kZiv2lnr-38" value="Engineer" style="shape=image;verticalLabelPosition=bottom;labelBackgroundColor=none;verticalAlign=top;aspect=fixed;imageAspect=0;image=data:image/svg+xml,PHN2ZyB4bWxuczpjYz0iaHR0cDovL2NyZWF0aXZlY29tbW9ucy5vcmcvbnMjIiB4bWxuczpkYz0iaHR0cDovL3B1cmwub3JnL2RjL2VsZW1lbnRzLzEuMS8iIHhtbG5zOmlua3NjYXBlPSJodHRwOi8vd3d3Lmlua3NjYXBlLm9yZy9uYW1lc3BhY2VzL2lua3NjYXBlIiB4bWxuczpyZGY9Imh0dHA6Ly93d3cudzMub3JnLzE5OTkvMDIvMjItcmRmLXN5bnRheC1ucyMiIHhtbG5zOnNvZGlwb2RpPSJodHRwOi8vc29kaXBvZGkuc291cmNlZm9yZ2UubmV0L0RURC9zb2RpcG9kaS0wLmR0ZCIgeG1sbnM6c3ZnPSJodHRwOi8vd3d3LnczLm9yZy8yMDAwL3N2ZyIgeG1sbnM9Imh0dHA6Ly93d3cudzMub3JnLzIwMDAvc3ZnIiB4bWxuczp4bGluaz0iaHR0cDovL3d3dy53My5vcmcvMTk5OS94bGluayIgdmVyc2lvbj0iMS4xIiBpZD0ic3ZnMzExODM2IiBpbmtzY2FwZTp2ZXJzaW9uPSIwLjkyLjMgKDI0MDU1NDYsIDIwMTgtMDMtMTEpIiBzb2RpcG9kaTpkb2NuYW1lPSJkZXZlbG9wZXJfNS5zdmciIHg9IjBweCIgeT0iMHB4IiB2aWV3Qm94PSIwIDAgMTkuMjkgNDguMDciIHN0eWxlPSJlbmFibGUtYmFja2dyb3VuZDpuZXcgMCAwIDE5LjI5IDQ4LjA3OyIgeG1sOnNwYWNlPSJwcmVzZXJ2ZSI+JiN4YTs8c29kaXBvZGk6bmFtZWR2aWV3IGJvcmRlcmNvbG9yPSIjNjY2NjY2IiBib3JkZXJvcGFjaXR5PSIxIiBmaXQtbWFyZ2luLWJvdHRvbT0iMCIgZml0LW1hcmdpbi1sZWZ0PSIwIiBmaXQtbWFyZ2luLXJpZ2h0PSIwIiBmaXQtbWFyZ2luLXRvcD0iMCIgZ3JpZHRvbGVyYW5jZT0iMTAiIGd1aWRldG9sZXJhbmNlPSIxMCIgaWQ9Im5hbWVkdmlldzMxMTgzOCIgaW5rc2NhcGU6Y3VycmVudC1sYXllcj0ic3ZnMzExODM2IiBpbmtzY2FwZTpjeD0iMTIuODYzMjIyIiBpbmtzY2FwZTpjeT0iMzIuMDQ4MDkyIiBpbmtzY2FwZTpwYWdlb3BhY2l0eT0iMCIgaW5rc2NhcGU6cGFnZXNoYWRvdz0iMiIgaW5rc2NhcGU6d2luZG93LWhlaWdodD0iMTAxNyIgaW5rc2NhcGU6d2luZG93LW1heGltaXplZD0iMSIgaW5rc2NhcGU6d2luZG93LXdpZHRoPSIxOTIwIiBpbmtzY2FwZTp3aW5kb3cteD0iLTgiIGlua3NjYXBlOndpbmRvdy15PSItOCIgaW5rc2NhcGU6em9vbT0iMTMuNTI3NzczIiBvYmplY3R0b2xlcmFuY2U9IjEwIiBwYWdlY29sb3I9IiNmZmZmZmYiIHNob3dncmlkPSJmYWxzZSI+JiN4YTsJPC9zb2RpcG9kaTpuYW1lZHZpZXc+JiN4YTs8ZyBpZD0iZzMxMTgzNCIgdHJhbnNmb3JtPSJ0cmFuc2xhdGUoLTAuMDAxNzcxNzcsMC4wMDM0KSI+JiN4YTsJPHRpdGxlIGlkPSJ0aXRsZTMxMTYyOSI+UGFnZS0xPC90aXRsZT4mI3hhOwk8ZyBpZD0iZ3JvdXA3MDY1LTEiPiYjeGE7CQk8dGl0bGUgaWQ9InRpdGxlMzExNjMxIj5EZXZlbG9wZXIgIzU8L3RpdGxlPiYjeGE7CQk8ZyBpZD0ic2hhcGU3MDY2LTIiIHRyYW5zZm9ybT0idHJhbnNsYXRlKDExLjQ3MzcsLTEuMzYyMjQpIj4mI3hhOwkJCTx0aXRsZSBpZD0idGl0bGUzMTE2MzMiPlNoZWV0LjcwNjY8L3RpdGxlPiYjeGE7CQkJPHBhdGggaWQ9InBhdGgzMTE2MzUiIGlua3NjYXBlOmNvbm5lY3Rvci1jdXJ2YXR1cmU9IjAiIGQ9Ik0wLDQ3Ljk3bDIuMzEsMC4xbDAuMDItMi45MmgtMi4xTDAsNDcuOTd6Ii8+JiN4YTsJCTwvZz4mI3hhOwkJPGcgaWQ9InNoYXBlNzA2Ny00IiB0cmFuc2Zvcm09InRyYW5zbGF0ZSgxMC44OTA0KSI+JiN4YTsJCQk8dGl0bGUgaWQ9InRpdGxlMzExNjM4Ij5TaGVldC43MDY3PC90aXRsZT4mI3hhOwkJCTxwYXRoIGlkPSJwYXRoMzExNjQwIiBpbmtzY2FwZTpjb25uZWN0b3ItY3VydmF0dXJlPSIwIiBzdHlsZT0iZmlsbDojNUMyRDkxOyIgZD0iTTAsNDcuODZjMi4xNiwwLjExLDIuMTYsMC4xMSwyLjE2LDAuMTEgICAgIGMwLjEyLTAuMzMsMC4xMi0wLjMzLDAuMTItMC4zM2MwLjcxLDAuMTEsMi4xNiwwLjMzLDIuOTgsMC40M2MwLjU2LDAsMS4zNCwwLDEuNzktMC4yMWMwLDAsMC4xNC0wLjExLDAuMTQtMC4yMiAgICAgYzAtMC44Ni0zLjQyLTEuMzItNC4zMS0yLjNjLTAuMTIsMC0wLjEyLDAtMC4xMiwwQzIuNSw0NS41NiwyLjI4LDQ2LDEuNzMsNDZjLTAuNTYsMC0xLjAxLTAuNTUtMS4yNC0wLjY2ICAgICBDMC4xMiw0NS41NiwwLDQ3Ljc1LDAsNDcuODZ6Ii8+JiN4YTsJCTwvZz4mI3hhOwkJPGcgaWQ9InNoYXBlNzA2OC02IiB0cmFuc2Zvcm09InRyYW5zbGF0ZSgzLjExMjg1LC0wLjM4OTIxMykiPiYjeGE7CQkJPHRpdGxlIGlkPSJ0aXRsZTMxMTY0MyI+U2hlZXQuNzA2ODwvdGl0bGU+JiN4YTsJCQk8cGF0aCBpZD0icGF0aDMxMTY0NSIgaW5rc2NhcGU6Y29ubmVjdG9yLWN1cnZhdHVyZT0iMCIgc3R5bGU9ImZpbGw6IzVDMkQ5MTsiIGQ9Ik0xLjE1LDQ1LjM0YzAsMC40OCwwLDAuNDgsMCwwLjQ4ICAgICBDMCw0Ny4zNSwwLDQ3LjM1LDAsNDcuMzVjMCwwLjUxLDAsMC41MSwwLDAuNTFjMCwwLjExLDAuMTEsMC4yMSwwLjIyLDAuMjFjMi40NywwLDIuNDcsMCwyLjQ3LDBjMC4yNSwwLDAuNDItMC4yMSwwLjQyLTAuNDMgICAgIGMwLTEuNDksMC0xLjQ5LDAtMS40OWMwLTAuNDgsMC0wLjQ4LDAtMC40OGMwLTAuMzMsMC0wLjMzLDAtMC4zM0wxLjE1LDQ1LjM0eiIvPiYjeGE7CQk8L2c+JiN4YTsJCTxnIGlkPSJzaGFwZTcwNjktOCIgdHJhbnNmb3JtPSJ0cmFuc2xhdGUoNC4yNzk0OCwtMy4xMTM3KSI+JiN4YTsJCQk8dGl0bGUgaWQ9InRpdGxlMzExNjQ4Ij5TaGVldC43MDY5PC90aXRsZT4mI3hhOwkJCTxwYXRoIGlkPSJwYXRoMzExNjUwIiBpbmtzY2FwZTpjb25uZWN0b3ItY3VydmF0dXJlPSIwIiBzdHlsZT0iZmlsbDojMDA3OEQ3OyIgZD0iTTcuMyw0OC4wN2MtMC4xOC0xLjE3LDAuMjMtNi45NC0wLjAzLTExLjA4ICAgICBjLTAuMjYtNC4wNC0xLjI1LTUuNjktMS4yNS01LjY5cy0wLjMzLTAuMjItMC40MSwwLjFjLTAuMDMsMC4xNS0xLjg4LDUuMy0xLjg4LDUuM3MtMS4yMSw5LjM1LTEuNywxMS4zN2MtMi4wMywwLTIuMDMsMC0yLjAzLDAgICAgIGMwLjUyLTEyLjAxLDAuNTItMTIuMDEsMC41Mi0xMi4wMWMwLjg5LTguNjIsMC44OS04LjYyLDAuODktOC42MmM4LjM3LTMuMzEsOC4zNy0zLjMxLDguMzctMy4zMWMtMC4yMywxLjE4LDAuOTEsNy4yLDAuODgsMTIuNzUgICAgIGMtMC4wOCw0LjY5LTEuMTQsMTAuMzEtMS4xMSwxMS4xOUw3LjMsNDguMDd6Ii8+JiN4YTsJCTwvZz4mI3hhOwkJPGcgaWQ9InNoYXBlNzA3MC0xMCIgdHJhbnNmb3JtPSJ0cmFuc2xhdGUoMy44OTA2LC0yLjkxOTA5KSI+JiN4YTsJCQk8dGl0bGUgaWQ9InRpdGxlMzExNjUzIj5TaGVldC43MDcwPC90aXRsZT4mI3hhOwkJCTxwYXRoIGlkPSJwYXRoMzExNjU1IiBpbmtzY2FwZTpjb25uZWN0b3ItY3VydmF0dXJlPSIwIiBzdHlsZT0iZmlsbDojMDA3OEQ3OyIgZD0iTTIuNjEsNDguMDdjLTIuNjEsMC0yLjYxLDAtMi42MSwwICAgICBjMC41Ni0xMi4zNCwwLjU2LTEyLjM0LDAuNTYtMTIuMzRjMC44Ny04Ljc5LDAuODctOC43OSwwLjg3LTguNzljOS4wNS0zLjU5LDkuMDUtMy41OSw5LjA1LTMuNTljLTAuMTEsMC41Ni0wLjExLDAuNTYtMC4xMSwwLjU2ICAgICBjLTAuMDgsMC40OCwwLjA3LDEuOTQsMC4yNSwzLjYzYzAuMjksMi40NCwwLjY2LDUuODEsMC42Miw5LjAzYy0wLjA0LDMuMDgtMC41MSw2LjU2LTAuODQsOC44M2MtMC4xNCwxLjE3LTAuMjUsMi4wNS0wLjI1LDIuMzQgICAgIGMwLjAzLDAuMzMsMC4wMywwLjMzLDAuMDMsMC4zM2MtMi44MywwLTIuODMsMC0yLjgzLDBjLTAuMDctMC4yNi0wLjA3LTAuMjYtMC4wNy0wLjI2Yy0wLjA3LTAuNTQtMC4wNC0xLjkzLDAtMy43ICAgICBjMC4wNy0yLjI2LDAuMTEtNS4wOC0wLjA0LTcuNDNjLTAuMTgtMy4xOC0wLjg1LTQuODMtMS4wNy01LjM0Yy0wLjI5LDAuODEtMS41NCw0LjI5LTEuODMsNS4xMmMtMC4wNywwLjctMS4yMiw5LjM4LTEuNjksMTEuMzUgICAgIEwyLjYxLDQ4LjA3eiBNMC42Nyw0Ny40NWMxLjQzLDAsMS40MywwLDEuNDMsMGMwLjUxLTIuNDEsMS42Mi0xMS4wMiwxLjY2LTExLjFjMC0wLjA3LDAtMC4wNywwLTAuMDdjMC43Mi0yLDEuODMtNS4xMiwxLjg3LTUuMjYgICAgIGMwLjA3LTAuMjIsMC4yMi0wLjMsMC4yOS0wLjMzYzAuMjktMC4xMSwwLjU1LDAuMDMsMC41OSwwLjA3YzAuMDgsMC4wNCwwLjA4LDAuMDQsMC4wOCwwLjA0YzAuMDMsMC4wNywwLjAzLDAuMDcsMC4wMywwLjA3ICAgICBjMC4wNCwwLjA3LDAuOTksMS43NSwxLjI0LDUuNzhjMC4xNSwyLjM4LDAuMDgsNS4yLDAuMDQsNy40NmMtMC4wNCwxLjQ0LTAuMDcsMi43Mi0wLjA0LDMuMzRjMS42OSwwLDEuNjksMCwxLjY5LDAgICAgIGMwLTAuNDQsMC4xMS0xLjEzLDAuMjctMi4xMmMwLjI5LTIuMjcsMC43Ni01LjcyLDAuOC04Ljc2YzAuMDQtMy4xOC0wLjMzLTYuNTItMC41OC04Ljk2Yy0wLjE4LTEuNTEtMC4yOS0yLjYtMC4yOS0zLjMgICAgIGMtNy43MiwzLjA4LTcuNzIsMy4wOC03LjcyLDMuMDhjLTAuODUsOC4zOC0wLjg1LDguMzgtMC44NSw4LjM4TDAuNjcsNDcuNDV6Ii8+JiN4YTsJCTwvZz4mI3hhOwkJPGcgaWQ9InNoYXBlNzA3MS0xMiIgdHJhbnNmb3JtPSJ0cmFuc2xhdGUoNC44NjI3OSwtMjMuNzQyKSI+JiN4YTsJCQk8dGl0bGUgaWQ9InRpdGxlMzExNjU4Ij5TaGVldC43MDcxPC90aXRsZT4mI3hhOwkJCTxwYXRoIGlkPSJwYXRoMzExNjYwIiBpbmtzY2FwZTpjb25uZWN0b3ItY3VydmF0dXJlPSIwIiBzdHlsZT0iZmlsbDojRTZFN0U4OyIgZD0iTTcuNTgsNDguMDdIMC4zNmwtMC4xMy04Ljg4TDAsMzQuNTRsNi44OS0wLjQ4ICAgICBMNy41OCw0OC4wN3oiLz4mI3hhOwkJPC9nPiYjeGE7CQk8ZyBpZD0ic2hhcGU3MDcyLTE0IiB0cmFuc2Zvcm09InRyYW5zbGF0ZSg0Ljg2Mjc5LC0zNS44MDc2KSI+JiN4YTsJCQk8dGl0bGUgaWQ9InRpdGxlMzExNjYzIj5TaGVldC43MDcyPC90aXRsZT4mI3hhOwkJCTxwYXRoIGlkPSJwYXRoMzExNjY1IiBpbmtzY2FwZTpjb25uZWN0b3ItY3VydmF0dXJlPSIwIiBzdHlsZT0iZmlsbDojRTZFN0U4OyIgZD0iTTAuNjYsNDguMDdMMCw0NS4ybDQuNjQtMS4wMmwwLjYxLDIuODQgICAgIEwwLjY2LDQ4LjA3eiIvPiYjeGE7CQk8L2c+JiN4YTsJCTxnIGlkPSJzaGFwZTcwNzMtMTYiIHRyYW5zZm9ybT0idHJhbnNsYXRlKDkuOTE4MTgsLTIzLjc0MikiPiYjeGE7CQkJPHRpdGxlIGlkPSJ0aXRsZTMxMTY2OCI+U2hlZXQuNzA3MzwvdGl0bGU+JiN4YTsJCQk8cGF0aCBpZD0icGF0aDMxMTY3MCIgaW5rc2NhcGU6Y29ubmVjdG9yLWN1cnZhdHVyZT0iMCIgc3R5bGU9ImZpbGw6I0U2RTdFODsiIGQ9Ik0wLDQ4LjA3aDQuNjdsMC4xNy04Ljg0bDAuMjItNC42M0wwLDM0LjI1ICAgICBWNDguMDd6Ii8+JiN4YTsJCTwvZz4mI3hhOwkJPGcgaWQ9InNoYXBlNzA3NC0xOCIgdHJhbnNmb3JtPSJ0cmFuc2xhdGUoOS41MjkzMSwtMzUuODA3NikiPiYjeGE7CQkJPHRpdGxlIGlkPSJ0aXRsZTMxMTY3MyI+U2hlZXQuNzA3NDwvdGl0bGU+JiN4YTsJCQk8cGF0aCBpZD0icGF0aDMxMTY3NSIgaW5rc2NhcGU6Y29ubmVjdG9yLWN1cnZhdHVyZT0iMCIgc3R5bGU9ImZpbGw6I0U2RTdFODsiIGQ9Ik01LjA2LDQ4LjA3bC01LjA2LTFsMC42LTIuODlsNS4wNCwxLjA0ICAgICBMNS4wNiw0OC4wN3oiLz4mI3hhOwkJPC9nPiYjeGE7CQk8ZyBpZD0ic2hhcGU3MDc1LTIwIiB0cmFuc2Zvcm09InRyYW5zbGF0ZSg3LjE5NjA1LC0zMi4zMDQ2KSI+JiN4YTsJCQk8dGl0bGUgaWQ9InRpdGxlMzExNjc4Ij5TaGVldC43MDc1PC90aXRsZT4mI3hhOwkJCTxwYXRoIGlkPSJwYXRoMzExNjgwIiBpbmtzY2FwZTpjb25uZWN0b3ItY3VydmF0dXJlPSIwIiBzdHlsZT0iZmlsbDojMDBCMjk0OyIgZD0iTTQuNDEsNDYuMDJjLTAuMTgsMC0wLjM2LDAuMDQtMC41MiwwLjE1ICAgICBjMC0wLjExLTAuMDQtMC4xOC0wLjA3LTAuMjZjLTAuMDgtMC4xOC0wLjA4LTAuMTgtMC4wOC0wLjE4Yy0wLjAzLTAuMTgtMC4xMS0wLjMzLTAuMTEtMC40YzAuMDgtMC4xNCwwLjA4LTAuMTQsMC4wOC0wLjE0ICAgICBjMC0wLjA0LDAtMC4wNC0wLjA0LTAuMDhjLTAuMTEtMC4xMi0wLjExLTAuMTItMC4xMS0wLjEyYzAtMC4wNC0wLjA0LTAuMDQtMC4wNC0wLjA0Yy0wLjQxLDAtMC40MSwwLTAuNDEsMCAgICAgYy0wLjA0LDAtMC4wNywwLjA0LTAuMDcsMC4wOGMwLDAuMDUsMC4wMywwLjA4LDAuMDcsMC4wOGMwLjM4LDAsMC4zOCwwLDAuMzgsMGMwLjA3LDAuMDgsMC4wNywwLjA4LDAuMDcsMC4wOCAgICAgYy0wLjA3LDAuMTQtMC4wNywwLjE0LTAuMDcsMC4xNHMwLDAsMCwwLjA0YzAuMDMsMCwwLjA3LDAuMTQsMC4xNCwwLjMzYy0xLjUyLDAtMS41MiwwLTEuNTIsMGMtMC4wMy0wLjExLTAuMDMtMC4xMS0wLjAzLTAuMTEgICAgIGMwLjE0LTAuMDQsMC4zNC0wLjExLDAuNDEtMC4yMmMtMC45MywwLTAuOTMsMC0wLjkzLDBjMCwwLjE0LDAuMTUsMC4yNSwwLjM0LDAuMjVjMC4wMywwLDAuMDMsMCwwLjA3LDBsMCwwICAgICBjMC4wNCwwLjE1LDAuMDQsMC4xNSwwLjA0LDAuMTVjLTAuMzcsMC40NC0wLjM3LDAuNDQtMC4zNywwLjQ0Yy0wLjE5LTAuMTEtMC4zOC0wLjE5LTAuNTktMC4xOUMwLjQ5LDQ2LjAyLDAsNDYuNDYsMCw0Ny4wNSAgICAgYzAsMC41NCwwLjQ5LDEuMDIsMS4wNSwxLjAyYzAuNDcsMCwwLjg4LTAuMzMsMC45OS0wLjc3YzAuMjIsMC4wNCwwLjIyLDAuMDQsMC4yMiwwLjA0YzAsMC4wNywwLjA3LDAuMTgsMC4xNiwwLjIyICAgICBjLTAuMDQsMC4yMi0wLjA0LDAuMjItMC4wNCwwLjIyYy0wLjEyLDAtMC4xMiwwLTAuMTIsMGMtMC4wNCwwLTAuMDcsMC0wLjA3LDAuMDNjMCwwLjA0LDAuMDMsMC4wOCwwLjA3LDAuMDhjMC4zLDAsMC4zLDAsMC4zLDAgICAgIGMwLjA0LDAsMC4wNC0wLjA0LDAuMDQtMC4wOGMwLTAuMDMsMC0wLjAzLTAuMDQtMC4wM2MtMC4wNywwLTAuMDcsMC0wLjA3LDBjMC4wNC0wLjIyLDAuMDQtMC4yMiwwLjA0LTAuMjIgICAgIGMwLjE0LDAsMC4yNS0wLjExLDAuMjUtMC4yNmMwLTAuMDMtMC4wMy0wLjA3LTAuMDctMC4xMWMxLjAzLTEuMTMsMS4wMy0xLjEzLDEuMDMtMS4xM2MwLjA0LDAuMDQsMC4wNCwwLjExLDAuMDgsMC4xNSAgICAgYy0wLjI2LDAuMjItMC40NCwwLjQ3LTAuNDQsMC44NGMwLDAuNTQsMC40NCwxLjAyLDEuMDMsMS4wMmMwLjYsMCwxLjAzLTAuNDgsMS4wMy0xLjAyQzUuNDQsNDYuNDYsNS4wMSw0Ni4wMiw0LjQxLDQ2LjAyeiAgICAgIE0xLjA1LDQ3LjkyYy0wLjQ5LDAtMC44OS0wLjQtMC44OS0wLjg3YzAtMC40OCwwLjQtMC44OCwwLjg5LTAuODhjMC4xOCwwLDAuMzIsMC4wNywwLjQ3LDAuMTVjLTAuNDcsMC42Mi0wLjQ3LDAuNjItMC40NywwLjYyICAgICBsMCwwYy0wLjA0LDAtMC4xMSwwLjAzLTAuMTEsMC4xMWgwLjAzYy0wLjAzLDAuMDMtMC4wMywwLjAzLTAuMDMsMC4wM2MwLjA3LDAsMC4wNywwLDAuMDcsMGMwLDAuMDQsMCwwLjA4LDAuMDQsMC4wOCAgICAgYzAuMDMsMCwwLjAzLTAuMDQsMC4wMy0wLjA0YzAuODIsMC4xNSwwLjgyLDAuMTUsMC44MiwwLjE1QzEuNzksNDcuNjMsMS40NSw0Ny45MiwxLjA1LDQ3LjkyeiBNMS45Myw0Ny4wNWMwLDAuMDMsMCwwLjA3LDAsMC4xMSAgICAgYy0wLjc4LTAuMTUtMC43OC0wLjE1LTAuNzgtMC4xNWMwLjQ5LTAuNjIsMC40OS0wLjYyLDAuNDktMC42MkMxLjgyLDQ2LjU3LDEuOTMsNDYuNzksMS45Myw0Ny4wNXogTTEuNzUsNDYuMjggICAgIGMwLjI5LTAuNCwwLjI5LTAuNCwwLjI5LTAuNGMwLjM4LDEuMjQsMC4zOCwxLjI0LDAuMzgsMS4yNGMtMC4wOSwwLjA0LTAuMDksMC4wNC0wLjEyLDAuMTFjLTAuMjItMC4wNy0wLjIyLTAuMDctMC4yMi0wLjA3ICAgICBjMC0wLjA0LDAtMC4wOCwwLTAuMTFDMi4wOCw0Ni43MiwxLjk3LDQ2LjQ2LDEuNzUsNDYuMjh6IE0yLjY3LDQ3LjA1YzAuMDgtMC4yMiwwLjA4LTAuMjIsMC4wOC0wLjIyYzAuMDcsMCwwLjA3LDAsMC4wNywwICAgICBjMC4wNCwwLDAuMDctMC4wNCwwLjA3LTAuMDRjMC0wLjA0LTAuMDMtMC4wNy0wLjA3LTAuMDdjLTAuMjYsMC0wLjI2LDAtMC4yNiwwYy0wLjAzLDAtMC4wNywwLjAzLTAuMDcsMC4wNyAgICAgYzAsMCwwLjA0LDAuMDQsMC4wNywwLjA0YzAuMDQsMCwwLjA0LDAsMC4wNCwwYy0wLjA0LDAuMjUtMC4wNCwwLjI1LTAuMDQsMC4yNWMtMC4wMywwLTAuMDMsMC0wLjAzLDBsMCwwICAgICBjLTAuMzgtMS4yNy0wLjM4LTEuMjctMC4zOC0xLjI3YzEuNTIsMCwxLjUyLDAsMS41MiwwYzAsMC4wMywwLDAuMDcsMC4wNCwwLjFMMi42Nyw0Ny4wNXogTTQuNDEsNDcuOTIgICAgIGMtMC40NywwLTAuODktMC40LTAuODktMC44N2MwLTAuMywwLjE1LTAuNTEsMC4zMy0wLjY2YzAuMDQsMC4wNywwLjA5LDAuMTUsMC4wOSwwLjIyYzAuMTEsMC4xOCwwLjI5LDAuMzMsMC4zNiwwLjQ0bDAsMCAgICAgYzAsMC4wMywwLjA0LDAuMTEsMC4xMSwwLjExczAuMTEtMC4wOCwwLjExLTAuMTFjMC0wLjA4LTAuMDQtMC4xMS0wLjExLTAuMTFsMCwwYy0wLjExLTAuMDgtMC4yOS0wLjIyLTAuMzYtMC40ICAgICBjMC0wLjA0LTAuMDQtMC4xMS0wLjA4LTAuMjJjMC4xMS0wLjA4LDAuMjYtMC4xNSwwLjQ0LTAuMTVjMC40OSwwLDAuODksMC40LDAuODksMC44OEM1LjMsNDcuNTIsNC45LDQ3LjkyLDQuNDEsNDcuOTJ6Ii8+JiN4YTsJCTwvZz4mI3hhOwkJPGcgaWQ9InNoYXBlNzA3Ni0yMiIgdHJhbnNmb3JtPSJ0cmFuc2xhdGUoOS45MTgxOCwtMzguMzM3NCkiPiYjeGE7CQkJPHRpdGxlIGlkPSJ0aXRsZTMxMTY4MyI+U2hlZXQuNzA3NjwvdGl0bGU+JiN4YTsJCQk8cGF0aCBpZD0icGF0aDMxMTY4NSIgaW5rc2NhcGU6Y29ubmVjdG9yLWN1cnZhdHVyZT0iMCIgc3R5bGU9ImZpbGw6I0YyN0FCNDsiIGQ9Ik0wLjE5LDQ3Ljg3YzAsMC4xNC0wLjA5LDAuMi0wLjE0LDAuMiAgICAgYzAsMCwwLDAtMC4wNS0wLjA2QzAuMTksNDcuODcsMC4xOSw0Ny44NywwLjE5LDQ3Ljg3TDAuMTksNDcuODd6Ii8+JiN4YTsJCTwvZz4mI3hhOwkJPGcgaWQ9InNoYXBlNzA3Ny0yNCIgdHJhbnNmb3JtPSJ0cmFuc2xhdGUoOC4xNjgyNCwtMzcuNzUzNikiPiYjeGE7CQkJPHRpdGxlIGlkPSJ0aXRsZTMxMTY4OCI+U2hlZXQuNzA3NzwvdGl0bGU+JiN4YTsJCQk8cGF0aCBpZD0icGF0aDMxMTY5MCIgaW5rc2NhcGU6Y29ubmVjdG9yLWN1cnZhdHVyZT0iMCIgc3R5bGU9ImZpbGw6I0NFOUM1RTsiIGQ9Ik0xLjg1LDQ4LjA3QzAuODQsNDguMDcsMCw0Ny4zOSwwLDQ2LjMzICAgICBjMC0xLjM4LDAtMS4zOCwwLTEuMzhjMy42OSwwLDMuNjksMCwzLjY5LDBjMCwxLjM4LDAsMS4zOCwwLDEuMzhDMy42OSw0Ny4zOSwyLjg3LDQ4LjA3LDEuODUsNDguMDd6Ii8+JiN4YTsJCTwvZz4mI3hhOwkJPGcgaWQ9InNoYXBlNzA3OC0yNiIgdHJhbnNmb3JtPSJ0cmFuc2xhdGUoNy4wMDE2MSwtMzkuNjk5NykiPiYjeGE7CQkJPHRpdGxlIGlkPSJ0aXRsZTMxMTY5MyI+U2hlZXQuNzA3ODwvdGl0bGU+JiN4YTsJCQk8cGF0aCBpZD0icGF0aDMxMTY5NSIgaW5rc2NhcGU6Y29ubmVjdG9yLWN1cnZhdHVyZT0iMCIgc3R5bGU9ImZpbGw6I0NFOUM1RTsiIGQ9Ik01LjgzLDQ0LjE0YzAsMi4zMy0xLjI2LDMuOTMtMi45MywzLjkzICAgICBjLTEuNjYsMC0yLjktMS42LTIuOS0zLjkzYzAtMi4zNSwxLjI0LTQuMjUsMi45LTQuMjVDNS4wMSwzOS44OSw1LjgzLDQxLjc5LDUuODMsNDQuMTR6Ii8+JiN4YTsJCTwvZz4mI3hhOwkJPGcgaWQ9InNoYXBlNzA3OS0yOCIgdHJhbnNmb3JtPSJ0cmFuc2xhdGUoNi42MTI3MywtNDIuNDI0MikiPiYjeGE7CQkJPHRpdGxlIGlkPSJ0aXRsZTMxMTY5OCI+U2hlZXQuNzA3OTwvdGl0bGU+JiN4YTsJCQk8cGF0aCBpZD0icGF0aDMxMTcwMCIgaW5rc2NhcGU6Y29ubmVjdG9yLWN1cnZhdHVyZT0iMCIgc3R5bGU9ImZpbGw6I0NFOUM1RTsiIGQ9Ik0wLjU4LDQ2LjMyYy0wLjMyLDAtMC4zMiwwLTAuMzIsMCAgICAgQzAuMSw0Ni4zMiwwLDQ2LjQ2LDAsNDYuNjNjMCwxLjEzLDAsMS4xMywwLDEuMTNjMCwwLjE3LDAuMSwwLjMxLDAuMjYsMC4zMWMwLjIsMCwwLjIsMCwwLjIsMEwwLjU4LDQ2LjMyeiIvPiYjeGE7CQk8L2c+JiN4YTsJCTxnIGlkPSJzaGFwZTcwODAtMzAiIHRyYW5zZm9ybT0idHJhbnNsYXRlKDEyLjY0MDMsLTQyLjQyNDIpIj4mI3hhOwkJCTx0aXRsZSBpZD0idGl0bGUzMTE3MDMiPlNoZWV0LjcwODA8L3RpdGxlPiYjeGE7CQkJPHBhdGggaWQ9InBhdGgzMTE3MDUiIGlua3NjYXBlOmNvbm5lY3Rvci1jdXJ2YXR1cmU9IjAiIHN0eWxlPSJmaWxsOiNDRTlDNUU7IiBkPSJNMCw0Ni4zMmMwLjQ2LDAsMC40NiwwLDAuNDYsMCAgICAgYzAuMiwwLDAuMzIsMC4xNCwwLjMyLDAuMzFjMCwxLjEzLDAsMS4xMywwLDEuMTNjMCwwLjE3LTAuMTIsMC4zMS0wLjMyLDAuMzFjLTAuMjksMC0wLjI5LDAtMC4yOSwwTDAsNDYuMzJ6Ii8+JiN4YTsJCTwvZz4mI3hhOwkJPGcgaWQ9InNoYXBlNzA4MS0zMiIgdHJhbnNmb3JtPSJ0cmFuc2xhdGUoOC41NTcxMSwtNDMuNTkxOCkiPiYjeGE7CQkJPHRpdGxlIGlkPSJ0aXRsZTMxMTcwOCI+U2hlZXQuNzA4MTwvdGl0bGU+JiN4YTsJCQk8cGF0aCBpZD0icGF0aDMxMTcxMCIgaW5rc2NhcGU6Y29ubmVjdG9yLWN1cnZhdHVyZT0iMCIgc3R5bGU9ImZpbGw6IzIzMUYyMDsiIGQ9Ik0wLjE5LDQ4LjA3YzAuMSwwLDAuMi0wLjA5LDAuMi0wLjIxICAgICBjMC0wLjA4LTAuMS0wLjE4LTAuMi0wLjE4QzAuMDcsNDcuNjgsMCw0Ny43OCwwLDQ3LjlDMCw0Ny45OCwwLjEsNDguMDcsMC4xOSw0OC4wN3oiLz4mI3hhOwkJPC9nPiYjeGE7CQk8ZyBpZD0ic2hhcGU3MDgyLTM0IiB0cmFuc2Zvcm09InRyYW5zbGF0ZSgxMS4wODQ4LC00My4zOTcyKSI+JiN4YTsJCQk8dGl0bGUgaWQ9InRpdGxlMzExNzEzIj5TaGVldC43MDgyPC90aXRsZT4mI3hhOwkJCTxwYXRoIGlkPSJwYXRoMzExNzE1IiBpbmtzY2FwZTpjb25uZWN0b3ItY3VydmF0dXJlPSIwIiBzdHlsZT0iZmlsbDojMjMxRjIwOyIgZD0iTTAuMTksNDguMDdjMC4xLDAsMC4yLTAuMTQsMC4yLTAuMzEgICAgIGMwLTAuMTMtMC4xLTAuMjgtMC4yLTAuMjhDMC4xLDQ3LjQ4LDAsNDcuNjMsMCw0Ny44QzAsNDcuOTMsMC4xLDQ4LjA3LDAuMTksNDguMDd6Ii8+JiN4YTsJCTwvZz4mI3hhOwkJPGcgaWQ9InNoYXBlNzA4My0zNiIgdHJhbnNmb3JtPSJ0cmFuc2xhdGUoOC4xNjgyNCwtMzkuNTA1MSkiPiYjeGE7CQkJPHRpdGxlIGlkPSJ0aXRsZTMxMTcxOCI+U2hlZXQuNzA4MzwvdGl0bGU+JiN4YTsJCQk8cGF0aCBpZD0icGF0aDMxMTcyMCIgaW5rc2NhcGU6Y29ubmVjdG9yLWN1cnZhdHVyZT0iMCIgc3R5bGU9ImZpbGw6I0NFOUM1RTsiIGQ9Ik0wLDQ2LjcxYzMuNSwwLDMuNSwwLDMuNSwwICAgICBjLTAuNDQsMC44My0xLjAzLDEuMzYtMS43NSwxLjM2QzEuMDUsNDguMDcsMC40NSw0Ny41NCwwLDQ2LjcxeiIvPiYjeGE7CQk8L2c+JiN4YTsJCTxnIGlkPSJzaGFwZTcwODQtMzgiIHRyYW5zZm9ybT0idHJhbnNsYXRlKDguMTY4MjQsLTM5LjMxMDUpIj4mI3hhOwkJCTx0aXRsZSBpZD0idGl0bGUzMTE3MjMiPlNoZWV0LjcwODQ8L3RpdGxlPiYjeGE7CQkJPHBhdGggaWQ9InBhdGgzMTE3MjUiIGlua3NjYXBlOmNvbm5lY3Rvci1jdXJ2YXR1cmU9IjAiIHN0eWxlPSJmaWxsOiNCQThENTc7IiBkPSJNMy42OSw0Ni45YzAsMC4yOSwwLDAuMjksMCwwLjI5ICAgICBjMCwwLjI4LTEuMTksMC44OC0xLjg0LDAuODhDMS4yNCw0OC4wNywwLDQ3LjYyLDAsNDcuMTljMC0wLjI5LDAtMC4yOSwwLTAuMjljMC4yNiwwLjI2LDAuNTUsMC40NiwwLjg3LDAuNjEgICAgIGMwLjMsMC4yNCwwLjYyLDAuMzUsMC45OCwwLjM1czAuNjktMC4xMSwwLjk4LTAuMzVDMy4xNiw0Ny4zNiwzLjQ1LDQ3LjE2LDMuNjksNDYuOXoiLz4mI3hhOwkJPC9nPiYjeGE7CQk8ZyBpZD0ic2hhcGU3MDg1LTQwIiB0cmFuc2Zvcm09InRyYW5zbGF0ZSg4Ljc1MTU1LC00MS4wNjE5KSI+JiN4YTsJCQk8dGl0bGUgaWQ9InRpdGxlMzExNzI4Ij5TaGVldC43MDg1PC90aXRsZT4mI3hhOwkJCTxwYXRoIGlkPSJwYXRoMzExNzMwIiBpbmtzY2FwZTpjb25uZWN0b3ItY3VydmF0dXJlPSIwIiBzdHlsZT0iZmlsbDojRkZGRkZGOyIgZD0iTTEuMTcsNDguMDdjMC41NCwwLDAuOC0wLjEyLDEuMTYtMC4yICAgICBjLTAuMTgsMC4wNC0wLjYyLDAuMDgtMS4xNiwwLjA4Yy0wLjU5LDAtMC45OS0wLjA0LTEuMTctMC4wOEMwLjM2LDQ3Ljk1LDAuNjIsNDguMDcsMS4xNyw0OC4wN3oiLz4mI3hhOwkJPC9nPiYjeGE7CQk8ZyBpZD0ic2hhcGU3MDg2LTQyIiB0cmFuc2Zvcm09InRyYW5zbGF0ZSg4Ljc1MTU1LC00MC44NjczKSI+JiN4YTsJCQk8dGl0bGUgaWQ9InRpdGxlMzExNzMzIj5TaGVldC43MDg2PC90aXRsZT4mI3hhOwkJCTxwYXRoIGlkPSJwYXRoMzExNzM1IiBpbmtzY2FwZTpjb25uZWN0b3ItY3VydmF0dXJlPSIwIiBzdHlsZT0iZmlsbDojQkIxNDFBOyIgZD0iTTEuMjksNDguMDdjLTAuMzgsMC0wLjYxLTAuMS0wLjg2LTAuMTUgICAgIGMtMC4wOS0wLjA1LTAuMi0wLjEtMC4zMS0wLjE0Yy0wLjAzLDAtMC4wMywwLTAuMDcsMEwwLDQ3LjczYzAuMDUtMC4wNSwwLjA1LTAuMDUsMC4wOS0wLjA1YzAsMCwwLjAzLDAsMC4wNywwICAgICBjMC4xOCwwLjA1LDAuNjEsMC4xLDEuMTMsMC4xYzAuNDgsMCwwLjkxLTAuMDUsMS4xMy0wLjFjMC4wMywwLDAuMDMsMCwwLjA3LDBzMC4wNCwwLDAuMDQsMC4wNWMwLDAsMCwwLjA1LTAuMDQsMC4wNSAgICAgYzAsMC0wLjA0LDAtMC4wNywwYy0wLjA3LDAuMDQtMC4xOCwwLjA5LTAuMzEsMC4xNEMxLjksNDcuOTcsMS42Myw0OC4wNywxLjI5LDQ4LjA3eiBNMC42MSw0Ny44N2MwLjE5LDAuMDUsMC40MSwwLjEsMC42OCwwLjEgICAgIHMwLjQ4LTAuMDUsMC42OC0wLjFjLTAuMjMsMC0wLjQ1LDAtMC42OCwwQzEuMDIsNDcuODcsMC44LDQ3Ljg3LDAuNjEsNDcuODd6Ii8+JiN4YTsJCTwvZz4mI3hhOwkJPGcgaWQ9InNoYXBlNzA4Ny00NCIgdHJhbnNmb3JtPSJ0cmFuc2xhdGUoOS4zMzQ4NywtNDEuODQwNCkiPiYjeGE7CQkJPHRpdGxlIGlkPSJ0aXRsZTMxMTczOCI+U2hlZXQuNzA4NzwvdGl0bGU+JiN4YTsJCQk8cGF0aCBpZD0icGF0aDMxMTc0MCIgaW5rc2NhcGU6Y29ubmVjdG9yLWN1cnZhdHVyZT0iMCIgc3R5bGU9ImZpbGw6I0JBOEQ1NzsiIGQ9Ik0xLjE3LDQ3LjQ4YzAsMC4xNS0wLjEsMC4zLTAuMjEsMC4yNSAgICAgYy0wLjA0LDAtMC4wNywwLjA5LTAuMTUsMC4xNGMtMC4wNiwwLjEtMC4xMywwLjItMC4yNCwwLjJjLTAuMDcsMC0wLjE4LTAuMS0wLjI0LTAuMmMtMC4wNy0wLjA1LTAuMTEtMC4xNC0wLjExLTAuMTQgICAgIEMwLjA3LDQ3Ljc4LDAsNDcuNjMsMCw0Ny40OGwwLDBDMS4xNyw0Ny40OCwxLjE3LDQ3LjQ4LDEuMTcsNDcuNDhMMS4xNyw0Ny40OHoiLz4mI3hhOwkJPC9nPiYjeGE7CQk8ZyBpZD0ic2hhcGU3MDg4LTQ2IiB0cmFuc2Zvcm09InRyYW5zbGF0ZSg3LjAwMTYxLC00Mi44MTM0KSI+JiN4YTsJCQk8dGl0bGUgaWQ9InRpdGxlMzExNzQzIj5TaGVldC43MDg4PC90aXRsZT4mI3hhOwkJCTxwYXRoIGlkPSJwYXRoMzExNzQ1IiBpbmtzY2FwZTpjb25uZWN0b3ItY3VydmF0dXJlPSIwIiBzdHlsZT0iZmlsbDojRkZCOTAwOyIgZD0iTTYuMDMsNDUuNTRjMCwyLjUzLDAsMi41MywwLDIuNTMgICAgIGMtMC4yNiwwLTAuMjYsMC0wLjI2LDBjLTAuMTQtMy4wNC0wLjE0LTMuMDQtMC4xNC0zLjA0QzQuOCw0NS4xNyw0LjgsNDUuMTcsNC44LDQ1LjE3Yy0xLjE5LDAuMTUtMi4zOCwwLjE1LTMuNTYsMCAgICAgYy0wLjgzLTAuMTQtMC44My0wLjE0LTAuODMtMC4xNGMtMC4xOCwzLTAuMTgsMy0wLjE4LDNjLTAuMjMsMC0wLjIzLDAtMC4yMywwYzAtMi40OSwwLTIuNDksMC0yLjQ5YzAtMS41MSwxLjA1LTIuNzMsMi4zMS0yLjczICAgICBjMS4zOCwwLDEuMzgsMCwxLjM4LDBDNC45OSw0Mi44MSw2LjAzLDQ0LjAzLDYuMDMsNDUuNTR6Ii8+JiN4YTsJCTwvZz4mI3hhOwkJPGcgaWQ9InNoYXBlNzA4OS00OCIgdHJhbnNmb3JtPSJ0cmFuc2xhdGUoMTAuODkwNCwtNDQuMTc1NikiPiYjeGE7CQkJPHRpdGxlIGlkPSJ0aXRsZTMxMTc0OCI+U2hlZXQuNzA4OTwvdGl0bGU+JiN4YTsJCQk8cGF0aCBpZD0icGF0aDMxMTc1MCIgaW5rc2NhcGU6Y29ubmVjdG9yLWN1cnZhdHVyZT0iMCIgc3R5bGU9ImZpbGw6I0ZGQjkwMDsiIGQ9Ik0wLjk3LDQ4LjA3YzAsMC0wLjA2LTAuMDMtMC4xNi0wLjEgICAgIGMtMC4wMywwLTAuMDYtMC4wMi0wLjEzLTAuMDZjLTAuMDItMC4wNC0wLjA2LTAuMDQtMC4wNi0wLjA0cy0wLjA0LTAuMDItMC4wNi0wLjAyYzAsMCwwLDAtMC4wNCwwYy0wLjEzLTAuMDQtMC4yNSwwLTAuMzUsMCAgICAgYy0wLjA0LDAtMC4wNywwLTAuMSwwcy0wLjA3LDAtMC4wNywwbDAsMGMwLTAuMDQsMC0wLjA0LDAtMC4wNHMwLjA3LTAuMDMsMC4xNy0wLjA2YzAuMS0wLjAzLDAuMjItMC4wNywwLjM5LTAuMDMgICAgIGMwLDAsMC4wMiwwLDAuMDYsMGMwLDAsMCwwLDAuMDQsMC4wM2MwLjAyLDAsMC4wNiwwLjAzLDAuMDksMC4wM2MwLjA2LDAuMDcsMC4xLDAuMDksMC4xMiwwLjEzYzAuMDQsMC4wNCwwLjA4LDAuMSwwLjEsMC4xICAgICBDMC45Nyw0OC4wNCwwLjk3LDQ4LjA3LDAuOTcsNDguMDdMMC45Nyw0OC4wN0MwLjk3LDQ4LjA3LDAuOTcsNDguMDcsMC45Nyw0OC4wN3oiLz4mI3hhOwkJPC9nPiYjeGE7CQk8ZyBpZD0ic2hhcGU3MDkwLTUwIiB0cmFuc2Zvcm09InRyYW5zbGF0ZSg4LjE2ODI0LC00NC4xODE3KSI+JiN4YTsJCQk8dGl0bGUgaWQ9InRpdGxlMzExNzUzIj5TaGVldC43MDkwPC90aXRsZT4mI3hhOwkJCTxwYXRoIGlkPSJwYXRoMzExNzU1IiBpbmtzY2FwZTpjb25uZWN0b3ItY3VydmF0dXJlPSIwIiBzdHlsZT0iZmlsbDojRkZCOTAwOyIgZD0iTTAuOTUsNDcuODVjMCwwLTAuMDYsMC0wLjE2LTAuMDMgICAgIGMtMC4wNCwwLTAuMSwwLTAuMTYsMGMtMC4wMiwwLTAuMDYsMC0wLjEsMEgwLjUxSDAuNDdjLTAuMTIsMC4wMy0wLjIxLDAuMS0wLjMxLDAuMTZjLTAuMDMsMC4wMy0wLjA2LDAuMDMtMC4wOSwwLjA3ICAgICBjLTAuMDMsMC0wLjAzLDAtMC4wMywwYzAsMC4wMi0wLjA0LDAuMDItMC4wNCwwbDAsMGMwLDAsMC4wNC0wLjA3LDAuMS0wLjEzYzAuMDktMC4xLDAuMTktMC4xNiwwLjM1LTAuMjRoMC4wMiAgICAgYzAuMDQsMCwwLjA0LDAsMC4wNiwwYzAuMDQsMCwwLjEsMCwwLjE0LDBjMC4wNiwwLDAuMDgsMC4wNCwwLjE2LDAuMDRjMC4wMiwwLjA0LDAuMDgsMC4wNiwwLjA4LDAuMDYgICAgIGMwLjA0LDAuMDQsMC4wNiwwLjA0LDAuMDYsMC4wNHMwLDAsMCwwLjAzQzAuOTcsNDcuODUsMC45NSw0Ny44NSwwLjk1LDQ3Ljg1eiIvPiYjeGE7CQk8L2c+JiN4YTsJCTxnIGlkPSJzaGFwZTcwOTEtNTIiIHRyYW5zZm9ybT0idHJhbnNsYXRlKDkuMzM0ODcsLTQyLjQyNDIpIj4mI3hhOwkJCTx0aXRsZSBpZD0idGl0bGUzMTE3NTgiPlNoZWV0LjcwOTE8L3RpdGxlPiYjeGE7CQkJPHBhdGggaWQ9InBhdGgzMTE3NjAiIGlua3NjYXBlOmNvbm5lY3Rvci1jdXJ2YXR1cmU9IjAiIHN0eWxlPSJmaWxsOiNEOUIwN0Y7IiBkPSJNMC43OCw0Ni4zMmMwLDEuNzUsMCwxLjc1LDAsMS43NSAgICAgYy0wLjc4LDAtMC43OCwwLTAuNzgsMGMwLTAuMDQsMC4wNS0wLjExLDAuMS0wLjE1YzAuMTMtMC4xMSwwLjIzLTAuMywwLjI4LTAuNTNjMC4wMy0wLjc2LDAuMDMtMC43NiwwLjAzLTAuNzYgICAgIEMwLjQxLDQ2LjQsMC42OSw0Ni4zMiwwLjc4LDQ2LjMyeiIvPiYjeGE7CQk8L2c+JiN4YTsJCTxnIGlkPSJzaGFwZTcwOTItNTQiIHRyYW5zZm9ybT0idHJhbnNsYXRlKDIuMzM1MSwtMjQuNTIwNCkiPiYjeGE7CQkJPHRpdGxlIGlkPSJ0aXRsZTMxMTc2MyI+U2hlZXQuNzA5MjwvdGl0bGU+JiN4YTsJCQk8cGF0aCBpZD0icGF0aDMxMTc2NSIgaW5rc2NhcGU6Y29ubmVjdG9yLWN1cnZhdHVyZT0iMCIgc3R5bGU9ImZpbGw6I0U2MUUyNzsiIGQ9Ik00LjA2LDQ4LjA3bDYuMDUtNS45bC00LjEyLTQuMjJMMCw0My44OCAgICAgTDQuMDYsNDguMDd6Ii8+JiN4YTsJCTwvZz4mI3hhOwkJPGcgaWQ9InNoYXBlNzA5My01NiIgdHJhbnNmb3JtPSJ0cmFuc2xhdGUoMi4zMzUxLC0yNC41MjA0KSI+JiN4YTsJCQk8dGl0bGUgaWQ9InRpdGxlMzExNzY4Ij5TaGVldC43MDkzPC90aXRsZT4mI3hhOwkJCTxwYXRoIGlkPSJwYXRoMzExNzcwIiBpbmtzY2FwZTpjb25uZWN0b3ItY3VydmF0dXJlPSIwIiBzdHlsZT0iZmlsbDojRUQ0RTVBOyIgZD0iTTQuMDYsNDguMDdsNi4wNS01Ljg0TDAsNDMuOTNMNC4wNiw0OC4wN3oiLz4mI3hhOwkJPC9nPiYjeGE7CQk8ZyBpZD0ic2hhcGU3MDk0LTU4IiB0cmFuc2Zvcm09InRyYW5zbGF0ZSgwLjM5MDcxNSwtMzAuOTQyNCkiPiYjeGE7CQkJPHRpdGxlIGlkPSJ0aXRsZTMxMTc3MyI+U2hlZXQuNzA5NDwvdGl0bGU+JiN4YTsJCQk8cGF0aCBpZD0icGF0aDMxMTc3NSIgaW5rc2NhcGU6Y29ubmVjdG9yLWN1cnZhdHVyZT0iMCIgc3R5bGU9ImZpbGw6I0NFOUM1RTsiIGQ9Ik0wLDQ2LjRsMi4zNiwxLjY3bDQuMDYtNC42NGwtMy4yNC0yLjM3TDAsNDYuNCAgICAgeiIvPiYjeGE7CQk8L2c+JiN4YTsJCTxnIGlkPSJzaGFwZTcwOTUtNjAiIHRyYW5zZm9ybT0idHJhbnNsYXRlKDMuMTgyNzQsLTM0LjcxNzQpIj4mI3hhOwkJCTx0aXRsZSBpZD0idGl0bGUzMTE3NzgiPlNoZWV0LjcwOTU8L3RpdGxlPiYjeGE7CQkJPHBhdGggaWQ9InBhdGgzMTE3ODAiIGlua3NjYXBlOmNvbm5lY3Rvci1jdXJ2YXR1cmU9IjAiIHN0eWxlPSJmaWxsOiNFNkU3RTg7IiBkPSJNMC4zOCw0NC45NWMwLjYzLTAuODYsMS44Ni0xLjA5LDIuNzYtMC40MiAgICAgYzAuODksMC42NCwxLjA3LDEuODUsMC40NCwyLjc0Yy0wLjY3LDAuODUtMS44NiwxLjA3LTIuNzYsMC40NUMtMC4wNyw0Ny4wOS0wLjI2LDQ1Ljg3LDAuMzgsNDQuOTV6Ii8+JiN4YTsJCTwvZz4mI3hhOwkJPGcgaWQ9InNoYXBlNzA5Ni02MiIgdHJhbnNmb3JtPSJ0cmFuc2xhdGUoNS40NDYxMSwtMjYuNTQzMikiPiYjeGE7CQkJPHRpdGxlIGlkPSJ0aXRsZTMxMTc4MyI+U2hlZXQuNzA5NjwvdGl0bGU+JiN4YTsJCQk8cGF0aCBpZD0icGF0aDMxMTc4NSIgaW5rc2NhcGU6Y29ubmVjdG9yLWN1cnZhdHVyZT0iMCIgc3R5bGU9ImZpbGw6I0NEOUI1RTsiIGQ9Ik0xLjUzLDQ2Ljk1YzAuOTIsMC44NywxLjM3LDAuOTQsMi40MiwxLjA5ICAgICBjMC42MywwLjEsMC44NS0wLjA4LDAuNjMtMC4zYzAuNTUsMC4yNiwxLjExLTAuMTIsMC43MS0wLjNjMC4xNCwwLDAuNTEtMC4xMSwwLjUxLTAuMzRjMC4wMy0wLjE4LTAuMzctMC4yMi0wLjUxLTAuMjIgICAgIGMwLjE0LTAuMiwwLjExLTAuNDUtMC4zOC0wLjQ5Yy0wLjM4LTAuMDMtMC42LTAuMjMtMC42LTAuMjNjMC40NS0wLjExLDAuNi0wLjQxLDAuNDktMC41OWMtMC40OSwwLjAzLTEuMjMtMC4xNi0xLjgyLTAuMTEgICAgIGMtMC4xMSwwLTAuMjIsMC4wMy0wLjMzLDAuMDdjLTIuMzgtMS40Ny0yLjM4LTEuNDctMi4zOC0xLjQ3QzAsNDYuMTMsMCw0Ni4xMywwLDQ2LjEzTDEuNTMsNDYuOTV6Ii8+JiN4YTsJCTwvZz4mI3hhOwkJPGcgaWQ9InNoYXBlNzA5Ny02NCIgdHJhbnNmb3JtPSJ0cmFuc2xhdGUoMCwtMzAuMzY3MSkiPiYjeGE7CQkJPHRpdGxlIGlkPSJ0aXRsZTMxMTc4OCI+U2hlZXQuNzA5NzwvdGl0bGU+JiN4YTsJCQk8cGF0aCBpZD0icGF0aDMxMTc5MCIgaW5rc2NhcGU6Y29ubmVjdG9yLWN1cnZhdHVyZT0iMCIgc3R5bGU9ImZpbGw6I0NFOUM1RTsiIGQ9Ik0yLjI1LDQ1LjQyYzAuNjgsMC40MiwwLjg2LDEuMjgsMC40OSwxLjk5ICAgICBjLTAuNDIsMC42NC0xLjMzLDAuODYtMi4wMSwwLjQ1QzAsNDcuNDktMC4xOSw0Ni41OCwwLjIsNDUuOTFDMC42NSw0NS4xOSwxLjUyLDQ0Ljk2LDIuMjUsNDUuNDJ6Ii8+JiN4YTsJCTwvZz4mI3hhOwkJPGcgaWQ9InNoYXBlNzA5OC02NiIgdHJhbnNmb3JtPSJ0cmFuc2xhdGUoMC43Nzk1OTEsLTI3LjYzNDEpIj4mI3hhOwkJCTx0aXRsZSBpZD0idGl0bGUzMTE3OTMiPlNoZWV0LjcwOTg8L3RpdGxlPiYjeGE7CQkJPHBhdGggaWQ9InBhdGgzMTE3OTUiIGlua3NjYXBlOmNvbm5lY3Rvci1jdXJ2YXR1cmU9IjAiIHN0eWxlPSJmaWxsOiNDRTlDNUU7IiBkPSJNNi4yMiw0OC4wN2wwLjM5LTEuODNsLTUuMTMtMy40M0wwLDQ1LjE2ICAgICBMNi4yMiw0OC4wN3oiLz4mI3hhOwkJPC9nPiYjeGE7CQk8ZyBpZD0ic2hhcGU3MDk5LTY4IiB0cmFuc2Zvcm09InRyYW5zbGF0ZSgxLjE2ODQ3LC0zMi4zMDQ2KSI+JiN4YTsJCQk8dGl0bGUgaWQ9InRpdGxlMzExNzk4Ij5TaGVldC43MDk5PC90aXRsZT4mI3hhOwkJCTxwYXRoIGlkPSJwYXRoMzExODAwIiBpbmtzY2FwZTpjb25uZWN0b3ItY3VydmF0dXJlPSIwIiBzdHlsZT0iZmlsbDojRTZFN0U4OyIgZD0iTTAsNDUuOTVsMy4yMSwyLjEybDMuNC0zLjk4bC0yLjczLTEuNjdIMi40MiAgICAgTDAsNDUuOTV6Ii8+JiN4YTsJCTwvZz4mI3hhOwkJPGcgaWQ9InNoYXBlNzEwMC03MCIgdHJhbnNmb3JtPSJ0cmFuc2xhdGUoMTIuODM0OCwtMzEuMTM3KSI+JiN4YTsJCQk8dGl0bGUgaWQ9InRpdGxlMzExODAzIj5TaGVldC43MTAwPC90aXRsZT4mI3hhOwkJCTxwYXRoIGlkPSJwYXRoMzExODA1IiBpbmtzY2FwZTpjb25uZWN0b3ItY3VydmF0dXJlPSIwIiBzdHlsZT0iZmlsbDojQ0U5QzVFOyIgZD0iTTYuMjIsNDYuNzVsLTIuMzQsMS4zMkwwLDQzLjU0bDMuMTEtMi4yOCAgICAgTDYuMjIsNDYuNzV6Ii8+JiN4YTsJCTwvZz4mI3hhOwkJPGcgaWQ9InNoYXBlNzEwMS03MiIgdHJhbnNmb3JtPSJ0cmFuc2xhdGUoMTIuMzI5MSwtMzQuOTA3NSkiPiYjeGE7CQkJPHRpdGxlIGlkPSJ0aXRsZTMxMTgwOCI+U2hlZXQuNzEwMTwvdGl0bGU+JiN4YTsJCQk8cGF0aCBpZD0icGF0aDMxMTgxMCIgaW5rc2NhcGU6Y29ubmVjdG9yLWN1cnZhdHVyZT0iMCIgc3R5bGU9ImZpbGw6I0U2RTdFODsiIGQ9Ik0zLjYsNDQuOTFjLTAuNjYtMC44Ni0xLjg1LTEuMDUtMi43OS0wLjQxICAgICBjLTAuODksMC42Ny0xLjA4LDEuODYtMC40LDIuNzdjMC42MywwLjg4LDEuODYsMS4wNywyLjc2LDAuNDNDNC4wMiw0Ny4wNyw0LjIsNDUuODQsMy42LDQ0LjkxeiIvPiYjeGE7CQk8L2c+JiN4YTsJCTxnIGlkPSJzaGFwZTcxMDItNzQiIHRyYW5zZm9ybT0idHJhbnNsYXRlKDEzLjIyMzYsLTIyLjcwMSkiPiYjeGE7CQkJPHRpdGxlIGlkPSJ0aXRsZTMxMTgxMyI+U2hlZXQuNzEwMjwvdGl0bGU+JiN4YTsJCQk8cGF0aCBpZD0icGF0aDMxMTgxNSIgaW5rc2NhcGU6Y29ubmVjdG9yLWN1cnZhdHVyZT0iMCIgc3R5bGU9ImZpbGw6I0NEOUI1RTsiIGQ9Ik0zLjI5LDQ1LjEzYy0wLjE4LDEuMi0wLjQ3LDEuNTMtMS4xNCwyLjMgICAgIGMtMC40LDAuNDctMC42OCwwLjQ3LTAuNjQsMC4xOGMtMC4yNiwwLjU1LTAuOSwwLjU4LTAuNzIsMC4yMmMtMC4xMSwwLjA3LTAuNDMsMC4yNS0wLjU3LDAuMDdjLTAuMTUtMC4xMSwwLjExLTAuNCwwLjIyLTAuNDcgICAgIGMtMC4yMi0wLjA3LTAuMzctMC4yOSwwLTAuNjJjMC4yNC0wLjI2LDAuMzEtMC41NSwwLjMxLTAuNTVDMC4zMyw0Ni40NCwwLjA0LDQ2LjMzLDAsNDYuMTFjMC40LTAuMjUsMC44My0wLjg3LDEuMjktMS4yICAgICBjMC4xMS0wLjA3LDAuMjItMC4xNSwwLjMzLTAuMThjMC44NS0yLjU3LDAuODUtMi41NywwLjg1LTIuNTdjMS40MiwxLjM2LDEuNDIsMS4zNiwxLjQyLDEuMzZMMy4yOSw0NS4xM3oiLz4mI3hhOwkJPC9nPiYjeGE7CQk8ZyBpZD0ic2hhcGU3MTAzLTc2IiB0cmFuc2Zvcm09InRyYW5zbGF0ZSgxNy4wODA3LC0zMC43MjEyKSI+JiN4YTsJCQk8dGl0bGUgaWQ9InRpdGxlMzExODE4Ij5TaGVldC43MTAzPC90aXRsZT4mI3hhOwkJCTxwYXRoIGlkPSJwYXRoMzExODIwIiBpbmtzY2FwZTpjb25uZWN0b3ItY3VydmF0dXJlPSIwIiBzdHlsZT0iZmlsbDojQ0U5QzVFOyIgZD0iTTAuNTIsNDUuODZjLTAuNSwwLjM0LTAuNjgsMS4xMS0wLjM1LDEuNjYgICAgIGMwLjMxLDAuNTMsMC45OSwwLjcyLDEuNTMsMC4zOGMwLjUzLTAuMzEsMC42Ni0xLjA0LDAuMzUtMS42MUMxLjczLDQ1LjcxLDEuMDUsNDUuNTEsMC41Miw0NS44NnoiLz4mI3hhOwkJPC9nPiYjeGE7CQk8ZyBpZD0ic2hhcGU3MTA0LTc4IiB0cmFuc2Zvcm09InRyYW5zbGF0ZSgxNC45NzM2LC0yNS40OTM0KSI+JiN4YTsJCQk8dGl0bGUgaWQ9InRpdGxlMzExODIzIj5TaGVldC43MTA0PC90aXRsZT4mI3hhOwkJCTxwYXRoIGlkPSJwYXRoMzExODI1IiBpbmtzY2FwZTpjb25uZWN0b3ItY3VydmF0dXJlPSIwIiBzdHlsZT0iZmlsbDojQ0U5QzVFOyIgZD0iTTEuNTEsNDguMDdMMCw0Ni44OWwxLjctNi4wMmwyLjU4LDEuMDYgICAgIEwxLjUxLDQ4LjA3eiIvPiYjeGE7CQk8L2c+JiN4YTsJCTxnIGlkPSJzaGFwZTcxMDUtODAiIHRyYW5zZm9ybT0idHJhbnNsYXRlKDExLjg2MjYsLTMyLjQ5OTMpIj4mI3hhOwkJCTx0aXRsZSBpZD0idGl0bGUzMTE4MjgiPlNoZWV0LjcxMDU8L3RpdGxlPiYjeGE7CQkJPHBhdGggaWQ9InBhdGgzMTE4MzAiIGlua3NjYXBlOmNvbm5lY3Rvci1jdXJ2YXR1cmU9IjAiIHN0eWxlPSJmaWxsOiNFNkU3RTg7IiBkPSJNNi40Miw0NmwtMy4wOCwyLjA3TDAsNDQuMjZsMi42NC0xLjY0aDEuNDcgICAgIEw2LjQyLDQ2eiIvPiYjeGE7CQk8L2c+JiN4YTsJPC9nPiYjeGE7PC9nPiYjeGE7PC9zdmc+;" parent="1" vertex="1">
          <mxGeometry x="439" y="-528.21" width="27" height="68" as="geometry" />
        </mxCell>
        <mxCell id="x5Qx7wWfgq4q1o_DWIzA-28" value="" style="edgeStyle=orthogonalEdgeStyle;rounded=0;orthogonalLoop=1;jettySize=auto;html=1;strokeColor=#FF8000;" parent="1" source="x5Qx7wWfgq4q1o_DWIzA-1" target="x5Qx7wWfgq4q1o_DWIzA-14" edge="1">
          <mxGeometry relative="1" as="geometry">
            <Array as="points">
              <mxPoint x="508" y="-368" />
              <mxPoint x="508" y="-427" />
              <mxPoint x="638" y="-427" />
            </Array>
          </mxGeometry>
        </mxCell>
        <mxCell id="x5Qx7wWfgq4q1o_DWIzA-1" value="" style="shape=image;verticalLabelPosition=bottom;labelBackgroundColor=default;verticalAlign=top;aspect=fixed;imageAspect=0;image=https://cdn.freebiesupply.com/logos/large/2x/git-icon-logo-png-transparent.png;" parent="1" vertex="1">
          <mxGeometry x="519" y="-393" width="54.74" height="54.74" as="geometry" />
        </mxCell>
        <mxCell id="x5Qx7wWfgq4q1o_DWIzA-38" value="" style="edgeStyle=orthogonalEdgeStyle;rounded=0;orthogonalLoop=1;jettySize=auto;html=1;fillColor=#009900;strokeColor=#009900;" parent="1" source="x5Qx7wWfgq4q1o_DWIzA-2" target="x5Qx7wWfgq4q1o_DWIzA-10" edge="1">
          <mxGeometry relative="1" as="geometry" />
        </mxCell>
        <mxCell id="x5Qx7wWfgq4q1o_DWIzA-2" value="" style="shape=image;verticalLabelPosition=bottom;labelBackgroundColor=default;verticalAlign=top;aspect=fixed;imageAspect=0;image=https://img.informer.com/icons/png/128/7206/7206623.png;" parent="1" vertex="1">
          <mxGeometry x="426" y="-305" width="61" height="61" as="geometry" />
        </mxCell>
        <mxCell id="x5Qx7wWfgq4q1o_DWIzA-3" value="" style="shape=image;verticalLabelPosition=bottom;labelBackgroundColor=default;verticalAlign=top;aspect=fixed;imageAspect=0;image=https://wiki.videolan.org/images/Windows_logo.png;" parent="1" vertex="1">
          <mxGeometry x="506" y="-624" width="60" height="60" as="geometry" />
        </mxCell>
        <mxCell id="x5Qx7wWfgq4q1o_DWIzA-35" value="" style="edgeStyle=orthogonalEdgeStyle;rounded=0;orthogonalLoop=1;jettySize=auto;html=1;exitX=0.5;exitY=0;exitDx=0;exitDy=0;strokeColor=#FF8000;" parent="1" source="x5Qx7wWfgq4q1o_DWIzA-13" target="x5Qx7wWfgq4q1o_DWIzA-4" edge="1">
          <mxGeometry relative="1" as="geometry">
            <mxPoint x="940.73" y="-493.1300000000001" as="sourcePoint" />
            <Array as="points">
              <mxPoint x="725" y="-326" />
              <mxPoint x="725" y="-326" />
            </Array>
          </mxGeometry>
        </mxCell>
        <mxCell id="x5Qx7wWfgq4q1o_DWIzA-4" value="" style="shape=image;verticalLabelPosition=bottom;labelBackgroundColor=default;verticalAlign=top;aspect=fixed;imageAspect=0;image=data:image/png,iVBORw0KGgoAAAANSUhEUgAAAGgAAABlCAYAAAChgqZ/AAAAAXNSR0IArs4c6QAAAARnQU1BAACxjwv8YQUAAAAJcEhZcwAADsMAAA7DAcdvqGQAAD3aSURBVHhe5Z3bjyRZftd/GZmR98y637p7unt67ted8VrgtReEhG0sIST4c5AsZITFA4gHBOKBJ4RkDC/ID8ZgycjgtSXjtZexvZ5bz/S9615ZVXnPjLzw+f5ORFXNeqarhNs79u7J/lVEnDhx4pzf9/xuJ05E54ajydy+IuXSrZIKzcnQNheOvkA5i9hAbHMU1E9pnptzdsaerlKezoS9LKmGrJ5AWbm0Hi9APb4bSocyStk1F88pXbgDuzlv24U8m6bbkBf+hrr8niJuqPaHMxfr/uGlSwEKDTdn8UxtZpsLR2x1pH1tC2wEjigPeUHOzugkJACdlK0j2JDW5zSfcqw9Jd3VS1hElo5mbFVLxrCcLvYUjjUI5vPsvM5l50NZb5MOstPeblEALvRF4NAv9YF8z6G+cEZ/L09qw/NMV5YgpazBIf3gZXQxFGBPDMmuJvPsmpBcwsS09FhlxHyLyFGmX+syeZ4FTUFpNhdTlZQb8oW0GOzMZas9tSUwNZQLQMD47NDPnZ8Pf8Ng85a5xLFJ2/5XEiClMLJCyvqmnEDK0Uhjq5HmzDsvHzlYYZuOf89Xbi4XRnTGWOQHCQ0sVr4nOhuRlxdKlJtxLIDCQOAf5/zeUcQ95pbn6kjnOS2J87t5GSUYngsA6Tjj49m9vCY/Ayk3O5O1Or3gkvS8AQrD5Bkpa1xghbMD0l+pgbwfhRTOqLy65D9U28UUrs9A/IE6U0aKvQ7EDOUITWcTpxkqUAMg3EXlw9ZrTXkiyVSrVJHXqwKclBBoNx1KgfSHFFoS0sX9vyrpUoDOU+jaBZZ+SYdCfviRXHJUBoaz6xIiIMLJAAYlZ0iT8iUJORH7khp2vcopwEy50dm9kQQnv4tOhIEgiVJdls/bPB+xr3uG+561U4CxESkp/6yM2kBSaUli3gdEuOvXla4EkJoXKHQtY5Q3m6wUB09uXzSSteU4SBIMYH8KA6YwVvvuPPC7CFwmW64u01Lac6TEQK8ROSDLSUU9N2TMuFHiNIekNnWXcG+VdRWMVM4hr0B5WdsgL6dbkIAYgARUOP660hWchOx0xnD9PQfIz5IVmKSOn6shpVBe2wCUtg6eLtSITaXBz/l5EgYkRz1ub8iL4kIQEhjmfIW8NVyvKrKb+Sk1ga1Xy54PGB1zYSCBTpn0vqpWFKqZAv8UYJDg9B7BNoY6r5J+6F5c2ndPoWDIUeN1HBgvGMQZukMDM+lRKcw2JSjrrrZYoVzUEL12I+834Q9SovpUwt1lyCVA51FXGv2zKXWwlaXRLxdRD6owtINr1QR2pBbQclZQtdqH3A45eqqDDLVQIGnrSfVOnHRVcMtDm7z4FdMPHaCzOIQ/WcGQL+aK5Q4RXZGSoIM0UCNQsYRyNVIdpBxG3ssoSSIKAQypM27iZalZ3tdE4MBIXAOn8WwaHAVIAEWwvCBbk1MdBUto3GTKvuIXGleE7yVOlwjNsn05gmpJzp0NbizpI4cryFObaFtuzDahHTFEG7mPQ5h1/ArpLwEgmd8vT4FlUgtipO95vo51FNmYLZ3KjVQThQacTVTCy4XgNWYrYh+asj+1IraoZBMqGkdTSyKkAyZLAqYTABkPbZwMLJlMbIzUJFMBBGiphBQgudVzrklmkQ3HMxsksQ2nReosW6WYt1q5aM1a0RqVvNXLZhWaUOLCOJowgCQhAEN9meeXYwAFS6Qh4RaIfYGYAXiVRJueP0DPkCBuFtE6sVujU5Bo34NHRmI079KmdqDkiP4dQ+Qx0qUyDGZZVAtUWAyUbwBI1Sb5qg3hUBtQTyY9G4+m1mn3rdvW9SPL5yZWkJ4C1AlNTKaSEh1HVkbllWmEwOwPJtYfTq3Vj6w1LFhvWkIjRlYsFK0OKgv1yJYaBVtbKNhKI2/NCmDly1wfU3OQEHcRaa87EZIyd0rUX/UTUpkrpucO0GCYfDVADolA0ujWER2itQWNtjmSMjmE9gAH6jwyG26bjQFpIomis4BghYUATHnLrHYD7mzYOG7YqFCzk1liu8OWPW7vW687tt2dQzttncLEvK00yzC3aXFctTEAjJCQ8SRIYxO9tVwruZrt9iY2GM5sp5uzJ6dz2+vRBCQKrUg7Z1YtTWy5WbAb62W7sVay9YW8LZTqtlRpWr1URaLoEEBnnp2YEZGXU37KA8/8mtKlAAXSPkYTvR8BTG6GxOQY6QmAdD83O/3MrL9rSXvbJuM2HUS3C9SohO0qE5NULapuWrFx3XKNTetVFq1lZXs67Nq94127e/QU6RnZ6fGAuvN2e3MTZq6iohqGdrP2aRcJWrBh0rAJQNVtYLfX6jAe8K0Cf4t2MCrbJ/sj+3j7FICwMy4MOC3TISBMbZWiGys5W2OsNAForbkCWMvWrJZcGqUyNaYkUS4FAKZ4rFCQvXz+quuq6QoAaUvDNTWD2EezPioBiZkjPd1PzFp/Ynbyoc0GSE7SoaNwNM9Ij7A5XCOpQ+tjihYtKi/btLZqJ9Vluzea24eHe/bZ8Z7to+byuZpNYX4R9XdrbdOWKw2rlVCNsKzd6eEP3KDKWwBUtcHup/baRsW2VlaQsCXLI6XtwrL92d7Ivndv3waDoSVjHAokQwjPJlMkqWfLi2NbXZrbAtITTyNrlit2c2PFVhsVa5TLVkLtYQ41FEO/4YzPcHw92HhyFfxVydtFS13c+RcUAE6BbI/UW/uhzY/v2bz3BAeoFcCLUH15QMIYWw5pi8YW58cY9g6XHtiUsrPuA1Tifa5/YFH3iVVRi3WuqVWqVqouIHlF68Hg0/7QumytWLGoBAMbNasvSC0N8Uv2uOchDBy7qzJC3ck9mcDQHHFThAsXlWB4qcJxxQaTvB13p3bUmVkvKdjO6dA+ebxt37/3qX22e9d2kP520rYJ0jZFlMJshvtw4sLXlvK/+Iv/5JfS/S9NtNMij0OCmOfnKPnZgdnoic0PPrXRyQOLZx2EJRhWGXWXIHeD5d+yH5fYLVKXPDkhPWO0zq2E11TluJlHzRS2cLevwZwNpKmOdpLNwSuzmsXlVa5foNqa+4HF3gNby+3ineE4l1awYxXbhvmPj/u23x1RD+2gPTmcDFfL3FePM2ZIUw6vr1xesuFwbsenx3Z4+shGxsDhb1SIrASgcoVirtHv65agSwHK3BhJj6Ie/CTUxq7J9kxan6Mj9wgKcbEBgKEawCloCxipmnMSQOTnYVwMsxaIIlcqZVutNmwpBpDclnUm16w7XYcp2K45TEXdycGYR4tUgeeHqkr6LVuYPLbblSNbwFHoRKv2yVFsD48GdtDHLacNis08yNWg8gAO1Qxoec4p/hqPI5wOsx428Khzz8aFfWKvgcdgAlOqtRqV3R0XNkFzfD3pcoBI3sBU0gsYaJu2cAwe4lHvY4TbdFwBHs4AIz/BhI/mcqNhaqGOAMnVZkRLkgQeFEE5qIBklctVq2IL4lLDihxXMQINa1NLx9YqOQBkFI861kBKG7jxS9Mjux6f2I1aYsVqE/u1Yt8/yFmLJozy+NDFqgMktZyP8kgC98LeRARRBSSXFtChuY1GqM/+gfXHDy2uHzOexpirsY3GfVRowcqAFBfoU1r+60rSSc9MPho1tBTYeY7+6jI6Tqwh1aXjBID6uUXYumrHk1XbH63YUbJo3XkNsOTJUc6nZiCAMOxMBGjlQt4WS5Hdbszs3cW+fXOxZW9VD+21yrG9Ujm1OyXAiA7sdn7PXs5v2yvxjt2pj5A+qkEKE2TlaNQDHECooEqL1AvlY6RVEsv9Cu7c0IcE25gQX0lv46UJkDk2MiqNbBp3rYPzs4tEfbr9od3ff2THo74laBC6/rWlSwBSy85bJ33sdgbmWnkhqB1kao5amBCA9nNLBJ4rdjhbtge9qn1+Yvakq2A0jxopwQzGb2aXVIf24Vt+PrGFqG+3S217o3Zibzb69npjaDeRlM35vt2p9uyVWgfAju1O8cjWSgNUEcEsLr/mrHswelbE1pRQjXLxcY0jqVg4O5WfLnAIRqfotWQwdtUV04YCZfJxzsq12OIqA7DE+XzPHh8+tk+f3Gd7gHPBPVyAvsiLH1a6VIJkMPOAIpWBVucngAgqardtFK3YEEMOZxiBK1JKtgs4D7Edf4h+/+2jHfvd1r59DAAHxdh6cZERj8tNfXN5hm7MJVGIgzMxsQrOw2qjbOv1gi3kR6i2U9sCkKWoi+rr4FzgKSoOm5ziMLaxZwPc5Qj3PATVBaRGIQENdTdblIxRXYAznmg2IsYNj2zQxx4RV1XzG6jVDeR/zYqiaI0mMchOErv3eN9apwOfYvI6/xxIQu6r6KvSs879+fRMgEJzqBAdLA9oRuCXyHBia6x+mxjxms0LTY5LNo6adjJdsZ0pMQ7B43dOj+x/t3btO0d79ju72/ZJp4NlAWi8pClqR8+G/AGZpAlV6arPbwg3chNsR2JN7MJyPLTm7MiKsnuAZRPAGR5hcFo2dzq1EuU1MRrLc9NgUpMTBhMu+gyVpuOC7F6OAQJAvX7Oet3Ieu289Y4jG7dRjckCAK1ip1ZtNCxZmzKPdk7s9//gA2u3icPEKal51S+uiCfYNHmHjCzyGSApNz1QTw/0VPgcE5VRJwNPr5KeCdDFFKrTGNWEJAEkoyxu3LR8/ab1bdn6hTU7RrLu92f2wf6u3YWJO3FiO8WZfTrq2gcHO3a3jVsrhxa7Y7i0YTqFDmhexsN4dRb3aiop0cQr3iG1S1ocmCmxlGjMsWhEHg5EYT5Uq5BNudEKUImdpgADc9TBPMwrwDCpNDE5GU6gqU2ofoQKPt7tAhJMRaLGvbK1DhI7OUrsyeMj+73f+659dve+9XqoxrzamyV5iAIo+Hgaa+GPjjJSFnlnl4U8v/Zs/9npmQCF2+gGNB5vKML1zOUq5JXpfwHv54blm2/Yid2xdrxlO/PYPmrt2QcPP7Rh3LHqFsHl9QUbLBTto86BfffgiX3YPrIWzJxLtWloT0dgotgKQGA0US95kPYngDMWKAIM0taJspMBgtYnHu5bgeM8FE0JYDUPiE2KAJ0xYJgmbpPQUawlA6CAtOVmnJ8TQDMokCvrHJ1aQhyVG1WsR4h38LBr+4/atvuoZZ99fN+++wfftSdPnriQZ4AoifnnEgWfOKHzsntT6UWSJMnLOEhB8lx4skouSZdKkNfl91brtJNHtMuWzOQobGGO3rSk/o7tzZbse0/27f9uP7ROgWCxOrIJrnC/MrXjEkEhNuWjwal9d++JPUKSeonAkMRotAsMQJkARiIJgXQs0EQCTMcOTro/7toMycwBbsz1Bc2AA3YE8xUJaZIphxTNAUtSJVByOg8wOZUFNA964dxKY8mWq6sMuyaSVLSdB217+vmRne71bdSb2Hd+53fte9/7nvX7WFB5iw4MtplBJvJgNuW45u4EiDiWJc2SCxSXJpKrQOq5SrpCHBRupFHiAIUDdskhXsgVqsQ9Ffujp9v2vz75Y7t7/LlFi0OrrJqVqjTenQFNteLpMagmCbp7DHPYl82ooDb8wTOOhD+m8C1qTvs4DWek2XOY7BIn3QQNue/+bM12kiU6XYPpeGaTuTVzU6uhKmvzkVWhBq50DaoSr1Uj8uOp1Ytzq5fG1qiM7cZGw66vXbN63ESYJ9ilE9o3tSrmsVbCT2TQrCwv2vo6DgTqeYIKTZIxHjseHmpu4hIz8UB6oudXnJcEuTRxPtihoNZ0rcCR06Hzl6VnTpaGFG4kcBwkjYKMYK0uPjju2r/5jX9vv/7hb9nT+WNbuGnWvIGA1XFn0TMxI6aIBxXD3xq6/xpIvd1csreXluzVZt3WNJoEjECQVMkmCaCMzgCS+pJKFEAjO8ndsA+jb9ofjt7EWdniXmsARYAMc3J4hfMEBhKQanWOXLG51I7yfaOnt0hT1LPmQs6Wl3AQclU7PurZk0c71j7tcWs98xrZqH9iGxtr9sorL7FdJ8CW1ISJZAHmasyP+Ot80eANgXJQg5I2QKGcgFxaWrZatXqmBp+VLpnNJrl4qkhaGTeTupP0yBOD33Z/x+yf/sd/bN89+h0bLrWstja36trMKvWiFQkY/dHDGIM9y1t1mrMNPKuXSmV7u1azdxs1e7taliWncipzoNjSkTOAZFcEjkjSg9rS9sSu20f5n7QPkne4ZtlWsInL9Q2YfCSFDHMZ/WOpSYErhiKtUj8wSl691FOprHhsbpVyxWcyxkh357SDKz5A2iUVjHjKS2LkyZYVDNNUTXs5FCkQrrYcENmbAErI037kAImUXnnlFdtc3wySdUm6ggRlp9l6w+jrTDdHvRVztnts9p0/2rZ//Wu/bPcmH1huq2fllcTKa1M6TyCocozW8QD9D9sW8aSuU8dL5ZK9jHS9QXz0PiBVBZI8OdSG38UlSeAAhiTGAZJzoH3KJCNr567bxwD0p7P3bIybfG31ZdtcvW1/8sEHNuwPqAIG6/H5oAveAl/thpkwSsypMUC2rm3Z0vKyLS0uAlAR97tnD+7ft04bDzG1HTPQlOFXmBE4IFIK6kvnxZvgMITymfoKYIUrBFipWLRvfetb9urLr/jxZWruUkulcRdW31AUylbi0HS/6e6h2R/834/t6LjPKCNPfKVAgviOUWWj4cwG3QkGVk8+ExtqVHJ1AhhoagJ8/rrUiMRESY1GfAAB7p6DBLMt4Vj5SFXEqI44l6fsnPN56qxVK1YulXzEn8LkVuvY9g6ObHt3357u7EG7ts32ACnr9vv0ATtYqTOYCB2wC7IhUkNaoDJBtaqeiduasLJ1wjmBlaA+h8OR02jElgE4YFDoWZSkrz/o02eIbbfXA3DiwNNTYqo2kogTgzPhDLwkXQrQWQIYDRSfHfbLcFw53tnr2B9//1OPE3yAocIiPLzZCF9qWGbQV3Fhq2YDVMMQGRoTSQFcaTwyTJQ1y7G7wg6I7IvUV6rCAhip1GTHvi+AElxqAKKsvLdglxKrlor28p0X7eaNF2wVyVhEMlaWV2xtbc3W1tdtdW2d7YbdeOEmdMuWV9asUq3RPaKoqYw4ADGqwyJ9Oihb49LBISnz4JQCf4MKkzR8QbVJmrKLzoCAhzAxeH/nnt+z0hVU3Hn9Pn2PdOi5Dm0wHB77td98ZP/y3/0H2y/8qSXrj61yDS9ptWpzXOsYDy8/xRiO8eHmLSsXuraB5/RaeWqvFSf29uqCvb68YBtawCZHQCC5BIG0jgWEGK99xT4iV3U0hlHcR1l+UnjfPs69Z6fdml2/9o79xPt/x5qozKNDJGd317odRiz10WoUgGwFzCnEVms0kJyqMzwBaDFuMp5QvmP3Pr9rnc4x52AmjHY1Jk/NvTH+OR+Cagv7X2ShwJWU6LrsvLDKo97lhv/CL/yCvfXm6/7U97J0qQT5iID0XJ5xQYNlU8KFe7tm20/26BiNQcdPxxr5eG+zBYv7yzY/XrLZyZqVBretkWzZ8mTR1qYluzHD7jQX7XVswLIGWQaOSOpsTLyTQASjwbUWSAKGfYGnWWl4JSeggFpslGgZ56cjgYgqQgpWFhbslZfu2DtvvWVvvfG6vcz+zRdu2LVrm3hiG6jCBp1DpcHE4CZjY8Rn+ifzL9WuAZlI3UECJJWHlOkX9vVj61NhqD45F8EBCLYrKy/gXMrCpVdKlwKkdni7vdZ0BGkftXRw2LG9vUPnmbwftSKaA+CwYpXRhhW6qwC0aPPOktWHC7ZldXu5AjDEHNeX1myx2iQWwjnQUxoCYMPL8xWSWgYlF9RJYLAV90QcnjWKFOfxwGINkD7YapZb59DxqJByCUnB+agzEOp1OSIVK6EC5RqLS2Kog0O9qjqwOjA2qKrgJof87KZBGr6QYIgACERJkZf9gfQlWZelZwKk+sI7OTRKPZfoMmL9PvRx/+gEG3QID6W7NQIpB6Pz46qVh8QVnRWbnyzY7HTByt2y3YwaxD7r9urGdVuoE1zGVZtFZfDAZmlmAsmyGcYzA0q8ysg9E5qrfXGI87KBWj0dE4ROkx4jd6BxD4PkcSV4bnoIhwOhEUTb1COBorwJtmtCmQCQqqdOcYMg12Mc2RFXibIluk/KXfb1J9gXUWBhAC3N93/hvEuMn1PSCcqLrpguLekg6a/qlm6DXIJIe+j5nZ39dJCjDogZ5jgJpVnTonbTcgCT6y6adVF53ZJtRU17qb5iC4UGYJasn8TWHResMylaH9U3gEZQf1LwRR4jwErmWokaw1+BJ0kDSMP54HiIOtU9pfqmgJNgr+R5CRx5YWprNnvs0y2pTVD+jMBXZf3VFjoHJOSrJJ1J+5dCEpJOi7fpfjh3EagMjC8n/vgVch7c0fCjy9MznQQ1WiclGTKY6qsYgzJDfZj9q3/7e/Yr//k37XQws/34T8yu7drajQW7UXvHJgdN63YLMLtsubhhN5tH9jdeLdibt8sEezNijsQKqCefM4NJsSYzqVnzZbNJF1WpGQBNespTG1nMyNYCrggnQk9IJRHD/LK1S3esXb5jf/rHD2xj+bb9/Z//R6i0KnWLBQIFMJBud/uxXWP2s+XEynPpp4zjCLD9Xtvuffa59XAWvArqmCGJDi5HcpKEsbxZDcrMERC3tA3ueKri9M/P+S4xoVz6mv29n/85e/21l6/kJFwBoACS1EQk11BPT1EJRQD65//if9qv/Opv2Bj1dFT61OZbB7Z6rWnXa6/beL9k3UFsgzkqLK7bMjZ5c7VkSwtIAf9yCIKmTGJcTs3JYS6sWJj7bHPexq62CrmEGAc3muOSwOScA0Sn5fjN800b5TdtEK3bo4/u2h1c6H/4cz9ry4tNAkIFgagvxV0Y7gQgEnSix2bkJWIu9UiC5AjQQf4Rq/Xw4j77zPqdLgzViKcM3mR4syIFh63MooMfMuARPz9WuQw0pbAVmFKZtVrdfp42vvHaSzYe/QUBSpWygzSlsz5wFS/QOD1n+2e//Bv2nwBIK0dPig9ttnpiy9fqdn3hRUtOIusO8zY0XO7KksVFXNq47OsFcmU8JRhYiAsWQ3pOU8ITi2PN3REnFZAwBwuAkCJJlpwBvUGRY5RHMDIWE6zEYGlii5o23n1k37i+aP/g2z9py0sNroeJMH6iSU28y4lLCo4hPBlLesRM76LyZaOoj/xhv2cP7n0OUF0rIFayaRMBRHnpdt9AGUABH20DSMoIUkUBl8BwPgAUWaPesJ/72Z+111+9cyWAhMAzUpAfTYlqoYXfT21gI5CCS4n7S8fyoxJOAbbntI6moEHlgU2LHcRigPfEtRqOuQog4NHVlnCDF2252bQG7m61VAOsmgOdRDVAbdrAFq07W7bT6bIdT7UIZdl2B8u2M1i1behRd8nutSp27yBnjw5nSCrxVq5knV4f77JlT57u2MOHj52ePH5qT588tV3yDg/27fSkZcfHB9Zq7Vv75Nj63a6NtBp1OCL0gmmAqRe4tNAkrNmm6ep8ynBx4qJd8eT8CXlntif7+bFOsXXn4xK2X0jPlCBVrtkl/dz7ZTS5JeAKOVS/9Ev/1f7Lr/66FYuL1p/1sOGJVVYKtnATV7vZs+FUCwaXAeiGdft1+r1qcXnBak1c44amOxx6Gow44v7OCOKmajyiGmvFEPeUmvIJR35qkUaonvNIkhRzzfXGA7Q02rH31s1+6g6OCRIxIEDtdzs+gCQZQfVwPfXn9CQPijQT7cu/ikhcTF8jAErsYPcpdUywkxzL4VDP6TO39jokHMItqLcsP5UgSHbIM9PkgSsXSMU1GwtI0N+1V1++/XwkKNuGQE1Bq7MpGNWsUezrWUyUoHK6eeseEJEf0SC8s3JRL8e3cQRGlkPH5MZE5kM63hehOhHA+YR68dhElpA3xF7geCRDXGm8vPEIJTcuwuwS9qBCZzVVX/Mt+hMOFDkvV5/AFUY3Gg2f2tna3LR17NJCc8FnqjXP1kXCWscndnBwiAe6Z9tI1c62aNd2of3dPSSsjUOhZcuatWcAOJvU4WyghMN0jxSAyUDxMlkx7eqP9s/+XD1dApBuC/rulgqIs+b542T/fgHkS22xTTmtBoWZw1ZsvW0Y2a0AHAyfnbjRL1FbYUzRAdaki9/WwxaxP4O5edzzAgMqGjH6+nhNPUZ+X4Qr3J9AbAeMZsiGDF9ADFsuYtRPUE+ajinhXi40mraxumrXAGhzY8NW2G8sLFipUqWZMX3J2ZDret2hv5N0etK1k1YbOrWTk1Of3BSYvnRYs/HqG6zyJ6XigRO7kmx44/sXiXx3pf18IJ+fgwqoepW5anomQC4fNEA/v1kKjy4SQHERA4+Rl32R6Pt7nZMSADQs6q7Z5LRkYzE517ZyDPMAOQ9TZz1A66LSBkWkJaIMjB/ing5gdm/M9TgCA5AEqBnn5gPOpednMHYGYAInNxJIAIqqyGE3pIeGw6Ht7+/ZwwcP3Bt7eP+B7SEVJ0hFHzsjN3uKfo6iIvawgmatwEytTKDtAJAXGJIawBHJCoe5R4hzTprsdIbDePou71ak2Qvlh2c/54/DBYz2NQ+nAaTrLmjAZ6ZnAsRY8IqCyyiYUoPJkQS/Usr7dEo4r5ET7AlNgmGopx5uLd7cvF2zPOop9lhqiH7v40i0oZ4/JpjAuB4MHLS7AAY4mMU5zEfoLJaaHqAHASwCCJGNODFEyrSFclpoTUyhZ07Hx6eorl178OChff75PfvsXqAHjx7a9s42qu2AMi1rn54gQdmDOQYItk7Je0p/QpcCc73DOnJpCPvK9J/nXaRQzne82A+c98rOKrk0XQKQUqgsNDpM8yhHFy40q8Q1DRdbNSQ8M5I6YJTNg61JTrFB7arlsSF5xVLzPpUBzBQwxhjxYR/DPLJRt2+jDqpFEic15+qLraRJoAGIgHK1py2SYqg1gZMDnDnb6XhKW4rYnc30ccILtrm1hYpbwVFhkODOi0l6viPX20luODTF/9ZsdRhq6k5gaOiv9kMfzxjtlJ1LCTB9e/GXnfM6IVd7YSBcJV0BIKW0Rg0ruTBp7at6VLCxhgEOa6BVzlUdAGmRSC5BugZlsy4uNLZmDiP83aL5KSP2EA/pwGk2O+YYYjudQgnnJx0cCAAcdAEgSMocKXICMAHirygATpSgtpSHe1kuVW1r67rdunXbbr34ot28dcu2rl93kBpNXPpq1dtbwIPTwJIdDQzzDnpXRZn9UHKbIhKjoWBPtA8gabmzKZyMlH/hGgfPr2Prv6ulSwAKVflPN7lQXG7n+voqzNjkpuE5h9+afLpNY7QWgcB0VoORNX96oLXRc9zxeX7PkviuTUsf44R9TMz0Z2w/Mqt9avPqp5YUPrRx9BHh6X0HUBOh09HQ5uOg/vSOWIS3l0tJ75S51623vQFwB5vz4OFDu3f/vj189AjVtuNPVyUxciRkJ0rF2MrlslWgMnYh5lh2QgxUUCmNEYBJmZqSH6cMD6Bl54VqoABMWjatU3Rml1T2iumZAIVquGH24+ZhRMBstM/m1gau7JY/atDS2oLcUi8naUKCDAMsgMZ1AMINlt1QvBTt4Rl/btMy4ADMvAY4VYH1kc1KHJfvWr760Iq1AxjX8UcJM+KZHCosDxB53HK98SI7JefCaTQj2EywLx0A2reHjx/bfRwF0YOHD2x7O7U/rRZem+xPz0bDAW0fmZZPScVdnFdTX6UVgjMAed8vAJXuZ5KVnc/AOAMPuliH9lX3VdMlEkRjPcBDranR/gtJErS5WbJr17XUiaCuSEPk2lFA6kIOhcr6lw5xGBKYO0EVJZOhDSZHNo2RjBhJinbxBA7Z7hDsPrKBPQK0HQLdXcsv7lu+CZjlbZtET200g5Jd6jq2ZNQjVhpA2BC8Oy3nVeA3w5ur42br0fYG9mcdV3tlBTe72bRyRTMZqbSrcWnfNM/ogaycoDR528VIyAfmGZPTrQAQs7P8LC89H4BUmQvXQplnd9V0OUDeaHk42g9J81NKi4tm164tExQ2cB8lujpJOb2mn8PbEinc53pNmWg+TBOVfZyDMa732E5tPGvbBMehNz6y9nDfutM9Gxb2bVTZtqT2yKbN+zZfvGuT6l0b5e/aYHbPRtMdRv4JgPQBBi8QcBLAmTIA9NrJysqavYCT8OKLd+z27dvuLGjRoQJWOQtakyZ3NwaogmYU5CY7z9T2MMAEjBPJB6aDlBL7QYoC8wMYGTDp+YyycxmwKUDn3Hx2uhygHJIgYt957ypAAGnW2XASluydd16xit6EIyOnGe9IQR4UwTCuFVGJz99pqn+Em91DigazFvunOGcndtrbt8543/o4D535E2tN71pr/qF1sUeTxsc2rX2GJD00K26j44658wDVp7kzPDC8vin2J0lmvrqmddSyp9s7bn9ET7af2t7+gbVwr09PT4mVuFbTRfBfKkfOgkAScwWOrz1gG84hbZzPvDiRg6WtmE9J0dnxhTJeLs1zYj8sZgzXXSU9EyApNWp1EixBBSiW0SYcrS1X7f1vvGLFgma7cXP1djWNUcDnjaZUTgtBDEOfa2F/WqhC4g5fwzBzGiv41FQzEjZHFbra0jItXO/+AI9O32QoHlvUOLDCCnZpuYXd2rdxft8G0yNCoi6SqSVUUyuWi6i4OvczOwGMvf19O8T2tI6OHBzFPUMcjrFmuGV7svUGzkzaDRj6wknmMLg00QtOO1PVIz/wI20C8z1pACsrlPKUHfu/tJKs+FXSJWuzQ4WZ9ckMqPK0nc8UHcO7uGoffP9jO+mOgKMg1U4RRgkut0aAP1MpYOyLJzgCx5arHtsodwSD8Kpwjaci7ECo36t2mggsBaPUmky6gNu1KB4wEGRsY7c3mrOzpEhcdWKrK3l77dUNfxhWr6PC4rxVa1VbWGja4sKiL7ldXl7xRYqNOqquXg2re1B7Kteo1x3c4aAfjhu1VGOQ1GeBwb0vMvwLxLmLEuMqzbfhWLaviX3c3Nj0dRJhYcmz0zMB8qZRsQOkBsozCFmeZhj/YjFn1UrZHj09tINW1zo9vC21nnMS5DyF9X7OrNg2K3ctX+tZVCUonZ/AdFQUaknf3HFHxL0oqUR0pdYc6MEaI306GxPuEBPNiY2ivgNaLBJf4YCMASiaafbiFMbn7KU76/buu6/b2sqCLS8t2Qa2Z3MzeJubOAwb6xu2trqM/VwAOAiw6oAkWtQxzsTJ6bGVcCYEokuR2gZQZ0A4D9J9qSu2wT5J6sJ5XScp5KTbHQElydQ919fWHCB/lHFJutQGuYi78aGwdDUNcM8HCrbJrFI0+9s//U27c2vditHIaqXIp4FKgBfHqMS8FnbEVsTtLkcL1qwuc76G5JVdFZqWURFoGjFOPKUz7M5xmzWzDSKoQCQsiQAmbyPsTRebdTJ6bF3ipKT2wCaLn9kcr29WRIUlXVTYgLg28Te5XaUNhj5HJ7DV7mKp6IzSkt8m2yYgScokNQpgs3hFhl2TxAGAIA3+k5ScUQAn2xcgZxRK89Nulp+eumK6xAZBgOOUiXqadBNJhtamaWXou29t2tuv37brG4u22ChaExXTrJcZhSU6HgMIQWEME+JFtg1fl1Yl6i/li1bQZORcwCBp2CPNWk9llwBjAjjjoRwALWAPnx4bTrvWm+3g7eGSLzy26fLnll8+tKiGVzcd2GFr3/b3d90p0PLb0XDEaKWtMNFnEORmy/A7c5Wn49S7SqUlqCbKeF9TgAQa18l5CJQCKdJ5lQPUQBlwAbyL51TfVdOzVZzXE6RIu2lzHTju6jdTZwRevR7hRpcJAPs+ba8PQvhIjOkIrmyeOCnWlFBMHUXUYCkJIwnGyZFQBzQGFMVLk+oemqAWY5UhZeDP/P08R3Ll9bmZPFQcG0JrS5W6rdSWfI3D4d6eHUBaD6110b1uF4dDa6f7NsCLc8mSo4Dt8zm4tB962HaAx6eZhjo2yZds0U6pMrVRzHW1Jsanx+f5IvFG23QAaB+AlK312E1UqFRcDWm9iop7tpNArQ4PDfcRIIgEit8u3XemKsjT00KMKttHj56gYpAEZyRFcWFDcKjpe+Kh+RBvD/B85kHeHzqN+v3rjJDeAPdF+mpD9oe6nIm+T3Gu1QCaAtSM64tIYLNQt2V9EINzegXlYHfPWoctax0c2eHhIXTg29bxsZ122g7UCCfEgdKSMfqhxSF6LK63EOQ0qG+wWM3zNgbyfymle+m5M6AyAAWOtvz0aEYAra2uYrefI0D6K3DCNIVAkW7mlu6lhVGiSVJ8BUZvCXCmtr2DCzxCUhjNWlGjqRTFu2qo4iSpBU6xJT/qBUDI0+di6FXaYW5NR32b7qvjkjldrweJkzmORjT2r1ctFRp2fWnLXn3pZWsgTXp8fdrCXrWO7QCm63GD6LBFUNzp+oM5Uc/VIAEvQMlOHeCaVysVdyQkrWpKSGlbLqTzU7RNlAJyruoCqaAC4wW8yZWVZa//L+4kaKSy0Q39uXqqBnRC7qc7Cyqk+6smCm9s1u1nvv0T9sZbt63RjBmZ6WpPNUaXaj3ZAKPVw0EY4+LmVnAqcDsrjKoyo5+RG8fYpYLWCZTwpspWxmMrieISecVU8sL9BJo+giRfQ99FTaZD63RxFvqaNZ9bhVFTr9X9LQd5crdfvG23bt2y9fV1VFjD76V+yYnodDp2gnR1UYdaUy2V5IGq7ifG617O/IyUF8iP2bptkk1i9Pmxtul+dhy00NXSpSU14vVTZ4P+h8tQ9qlMgeTvYSIeArFUMbt5u2bf/lvv2Wuv30TXwnCXFhqmCgEoSnCL+2VID/IWrZTbwIlYhZkAVq441cp1AKsDnr7lA7GtFCsBJEB05mHwHVDA0zbCvk1wyY+PD213L6zg0UM5SQWN8/Jh9rrs9lAM1xDL3ivVez4uSXosQnJGp1KbMd9daQfgAghZvqTFrwn5uja43uzrnLZpnVdNz1RxqoaB4TvCRUo/hStQ1kE3pAAWycLIuEe2ca0JoEX/CMSoL/2uQJRyDi5gEeQGgUIGC3QEyuOS65sWMSAEgvk+igGYrTsd8sL8eQ75bIt4hwKoGTVsBQ9xpbRotWLVesdd/7zmoIudwYvr93v+MlUfAHrsD9iOAE4z8XpXVFoihpl6PtTv9d1OrK6s+myDeiwJOVdf7J+RJCjbl0Cz9Z94J4DCvpL6oDhraXHJXzL7i9sgUpATCqJDdMPsbm481WCBBNN1TnnhxVh91DVnq0Tu9XJsR/uPbdjb56KOFbAXs/kEUHEPXG3KMFM/dUkdaeWlvoAVVAOguE1i1GFgc7G2ec5XAAhJiqt0tGElbM9SfsVW41VbK6/Z9bUbttJcsrWlVQLTdTfMAhNuUZU+Ujtz58C/ykhzHSAGnwaCHpsIoJWVFYLdVW+fpzPGiwf8TY+dQ74v1qR5+qfRR/LBqB2OPVBtEn+hbq8K0JVe4PIU2nKeHJSgIc8NqZwFSZRGi56ymrVaffuzDz+23//9/2N37971b98Mp00b2aLHoRMC22mBALLa9ndbKytcW0XlRLjDiQgnYDYhhgVYrQrH1kh6GJvUry/8ElzmqraU1GzTlu1Gcd3WG4uoTj0jCnN83dMuDguAoOb8sTz9kEoUhUEW1FCMdGrEbz9+aK+9/JK9+cbrqL4xA4kRlHbePUlI/ddG+dk2/OPHfZwdJNmyLOl+N27csBdeeAGPt/GFc1+VLpWgr0wBEU8uWWIZnQ8jBjVGq/X5lVoltpWlOrpfa9xQLRjvZCr1pjcU6JD+zOQVyuPDMDPQFSvp62U5qT1GXYwaywJM2aBSoQYhafkFK0eMxhySOmtYY163eq5iZfRkv921kyNcbDy4Ywy/VJsWyYuXqlNelGyRnACPz8gTSOqXvL5VPK3NjXWYz2ije0F7BHKJ8b6GPuvY+y6wfZ92+74GMHxQ3eSp/cuoN8VXsTTDFdL/P0Bfkrz79EGdVXKVlwZ68prUQD2S7mtmYBxcb2eArkOKcoUEF5yRTpykT1Sqf2Ke1hD4InuC3xipKWFvyrmmlZDC4nTZ4smKVSYwfFKwahSj2lZshJoSo7u401qirNlrf3KKNPiLW+zrA+qaDvIXhdN2isnd9mmYw9vYQGpTT5UUBqIXgwIQWfJdSBs5BiEjPLIQP7w8KkXepNZFKCa6SnquACn5CNJIJAWXXHlqZMG9sxIEb9DzI2eaAHIvqTCxfIn9eIoqGjhAQOxMcNWD4xEhaQVDNVkKzgxw9JWRASptQB3YlJhBsYAdm7MvCZa+X11ds6VlRm5Tb3OjFgmc/SWuFBgfRGImjJQT0sXzk5Mg0lvd3ofU2AeSBIW+Zpmep34AjrbBs9NEa8oDflr3IIDk9mv/Kilw8jklNVgN8tch0+Ow1V9ikmrFbly/Zm+//Yq9Q5z00q0VW1mMUVVjmJ4gDTMraJK0A9OORYzdY9TfEZ1t40oPmlYZLVl1DE2WrJI0rTiuWH4EgAmDAM9Qj9g7Um8nbWufdohtsD8DrT0ADF/sr5lYveBc8I9S6PsM/npkreKTqBrlkhh3Dmi4gwaJ2U7aT93rTKUrLsuOvSxbV4HKp2wGvDRIqEPngjo8I34XU7B1zxkgJVXsLzG5oQzSlDVADa7Xq3b75qa99eYL9jb02kvrdguXfK0JoyhbJAQp9Ch7CqMO8QwPGO37ML6FO91uWrm3bCUkRmAVBnhzQ9Qe3oameoqoNy1cQfDwOoMjoe8YHLdOfH5NdKTvIyg20svKAKEnqVI3IjFOefKunDmSBBjrDBZjqTsD7AyUlNzrZHuR6TrWxzHcqeFY9V48f5FoLCkFKQgdCan+y1BxIo1CbUOjNcrCcxU1UjzU+z/VaowLXLVGDelQLCTOTlA3mgOdwrAxNCIWmjK6pzVUGqphWrc89sZGqIgRHRKguOxl1RnpscYc937RGlp3gO3SYJEEddM4SBKU2T0NJv8eK4zRvjOKfU2wbqxpSdkWeeSAm/clpdBHADnbD8faZv3OyG0Nt5AEy2tbWgpOgjw6DQLdL0sUT3fC/Xz3ym72FVJWqVK4OX+0JV+dka7XJ1kmOAeaWe52+9buYMxRSa2TIzs6ObSDY+jo0E66bQJKRfVcrjV2+sZpJMMKIR2anNWcIGPcYxfCLRyJienTO9cx8BG2Qy9jaf2Bwme5/VJheXS/QPPVpDDMXx5WjMcA8sAYUHefPkUFv2nvvfsOZXFkvBOhL76vzilLR+yLwnFwjMQHDQLVr8lXDQoBpLpfffVVf2hYJubz67KU7oZ7nafnClA2CiU1AkHJ9TGqQslfI+QnVSHPajTMPqcyBgxsRu/UTtsnAHVs7XaHUa+HbYn1+/LApv6Oqb9XKneZVqdK1AGS4UeToFLySE/ZhqixLpIwGo/IR/3hqpe1qlQfnoWJ2SN2j4EUs6G2Yka1mLjz5LF/W0EA6f8t8pen0+SAuNSleTpWY3w/ACTHIsEOZ3ZPZcQXeW93XrzjDotc/IsDOtsPkuh7vn3uACmdAyQjm4o+57LRpXd4dDzRwpFkglTpBV/9n0FDfxra82/eAA7AyS3vdIif9D0czZXRYdWt1+dVn8yoPERGgt9LqddpWweQB71eGMWUU8v8E2RsdW/ZBZ+UBTCtlxNwesSgtj0lUH0bgL4BQHMteBGjqEF1eB+hM6alYGmo6D5y28Ogk/ueuOaQQyKbJVBu3rrpKi6bD1R1AiIbyGdbmQb9nidA3g01HvHWDZR0nAHkN1Rr+CdmqkNhPUIWcct7mnvHFCMJiDEAas5MKmmMvnNwIOUJYHpD59FvdEpqSs94PvnoI+sDkuyeGN4jJtKLW/pPOvzdH64TIL6QkW21RuArgDSvh814+viRvfPm6/b+e+/SpmCvRP5XjVViG8DinwYKfdIaCgXFHlfRRiU991EcJ+0hxt+8edMlSQCV9Ca2wKGdGYk/kubAvysAJKbq3/NNumUAJlQuAMPWSUbcT2raCFsiO+JvVgTwlR8efai8OqKHd+zTqePjE/sf//2/2eH+PjUFaR0TEzmQUoVSZ054VpRXbV4XW5cq6PHD+/buW2/YT37zfb+XJoEFhgaUGB2aqPYH1ulp7RCJ15euOgyMCgDoU2eaQdBErdaDS1r05p+cBJ0rAk5Y5YptxC7qfObt+SAmqf4wzC9N4YKrJbElK6/tl+3r5uo6P81m++JIzXJLEBhBqANNwajBJdSQVoJKLWiVzUKjHmaEFxZseTHQ0iIdX2jaCp1fXiJ4LRSRyBkSo3Xau7YPWK1Wy5mnNQr+5rck0qVQs9kKC0RiukBI7ZOP5vPR7V5bqoaUJOl9JFJPaY+OWi41eiBXQTLlDPVR1VTi0qq++H2oV5Km9XgBDBUJoGR0MV0RoDBSrpac7Wf759de3EdiQsvIkX2g4TmI/fA/NVIOcmEhacQ7YO4MBH1+TqgxJ31vQe47zKCc1kRQKaNeEhDUaXgo1/ZH3/t7u2z1xveJP4oQYL7+QPdOU2BYUDtim7a6n0CTozAAbK1ilUMQnAy8SbwzAShHQfdUeX9kAglkgaRzqlE2UP3JVFvoNv1OSemKAD3fFG4tcLTPTwtABI4rHNmq1F6pWPpXW2fSF36hFl3npdRBhVFJUJ9ah721dc1eQO9vbm36Gjjpfnl2vV7XgZFTojccgg1kMCAhAkAUAErvrH0YqZkEgSFJ03IufaDP17qlc43HrWMGQQdQwrSOAl09CFRdUnGZFKlsUG3hOZfOZ5y5mL4WgNQU1LqT3GSbM/TTpgTYBJSMbAAujCiKIRGByD4jaiMe0iVer0Yv6kXOwCGje3dvz/YP9t02yYEQH7QGbuvapt24cd3fBF/Vy10KHhVUklzFMfoFjOrTCA8SrNhLNzWfV1xdXbVr1665atM9BIxsjEhJ0qqZhEWO5RgIHDkjeiakFawCKZOsANB5yqTohw6QM9G3GvkCSWzQHJq2yskkSeCIKOeND1d6Wd8qJ/upgyFPDNXDMK03kMRoYaJUpKRGa7M11XPiaq2PahrB3Ey1cc8LwHutMC4b3bI92hdDdV6Sr4BX6xcEkO4pj002TRKjcrJH/syJ69UugaqnqQvYTdkp1ad7ZAB9EaSw/0MHKEvOYI1+MVcScKEpbpek9nAetJ9yDPI/F0jpwr6YS5Ju11PXGlKhp6l6UisvSTYrY4YbeDwvPT3tIW2Ku3wtAqPW1ZzAScv6NaqYfT2Z1ZydnBA9lZWjITCyuEY2Tw3Rd+nkrXnIwXU1HBy9hqkgVeBkkhPqzvqSJYEV9r4WgEIXMLRZK9Lk+WQ5bn6sHD2R0XMjAk46G1yJAFsguRgqQ3mKyzDruY/UjVaW6g0HrT8owcBr16/5VItoc3ML7xBXGOmSV6VRn7ANAAUvUoxVfb6ugH2pHG0FhPK0vX79ujNfIEtCZXfW1zf8nCRVrrdslMrJTknKVEeoNwyAP4fPhfRDBygotqDgsv2sfVleANCVCGCh8vR+0bnRggLDnGkcO6DpVoZc0lOpVXz0Hh7piyI7tou7ndHe3r6rJo12AaR1EPVaw9WUg4KtEIl3MuJeOQc6dw5SUF1yseUYNLErL7/8sufJpRdYevdVg0EvkMkGKYaSHRI46mRmZ0Teae4T+qXbhf2vUYK+PIV8gZSpvRQw/oiydNYnT4KSTjtA5AKodL9Grr4Uf/3aFiN7wTvcxXvb3d0BpF1G+DEjv4Pd0MNBqdSUYV6f/tICbIerOzEL0kdmdawGcOgq1BeByDscDd2FVzlJ0a2bt9Lvo+oTAKmnxj8lv4vulZHfTSkAk6XLATov+1xTYPuXJd1QzZJnFyj8z/T8XFzUIXVQozlQEKNU7fmrl6gp3NsGo1qLNG6/eAtva8uWlxdDFI99CDZAdSlY1dcaB4xuTZ0HZmVfWNEv2CPc6xQcAaD7KfZaBhy5z1pPp5hIjoDU2Ut37jAwrvn8nlqrNku6xfwMgAwcpXNQzvOUnvl/ef91SsIIDtoJcclv/dZv26OHT7FF8q6wMVM9WpBakScWDLriHH0SczjsM/L7nJdhrzHam/bZ53ft/fe+Yd/+mZ/2Z0pU68NGjMvUk+YCZXf08E/zb3Iy5HZ/+9vfdvvj5Z6RNOC80kvS5RL01yiJgRqJehFLkpJ981pqyj8RwDnZAXlwWm3qL4fhUEgqNPLLjPYJoGZ8U31STf6YBHulfTFfMwGnpye2vf3UHj9+7PblnXfesXff/YZLppID8BzSjxRAYoqY/ILU2q1b/madAlA3/nhdejQgwBwYjLXmy/Q5f4HiLxID1BhVpe/Lae25WCwS0xUHyaWWZ6b/7EmOh+rS7PRLd17yrRY7ZlIm1fg80o8OQOIHzFHkfuP6DXv9tdeg1zHUN21N/3E7dkLxUFlPVd2mBFsihmrWQI83BJy/N8txlrIpIIEjb03AKNgVmDduvGDvvfe+P+ORFPljh+ecfmRskIa64iR1xmMbfAXFIO32iU+KhhkEzWYPfB7OZ7L1WWatHJ0lNtZnanBG4rjsHt572KBv/dTf9IBTn8uUSjs5PvF13e543LrtgaeSwNKNz5YJXyFd1Qb96ABEklrRz//PcHlF9EwSMMARkEHXY/TTk1M70qMH9gfDHkCh0uYKVPUBWgAGpP39HXvzzTccJEma4poxgazsml5E9v+gyd9n1Sc/BVAIPHUvB+sK6ccSIO8wJE2jOTvxSjj5YhUMvdbrSar0gE0zDZ2uJErSpJeN9epJgncWHAB9JEpr+KQCNUkqcLL/RUVuuvJ90X16X1eV0Lm7/Oz0YwmQmCNj7qbA/W4JESGsPoWFufVVn3h0ytXUjp7nCKAuwar/vz998ob6T3GHbqvCs52cqzQ5AOWS1pN/8XG+bzX/5vxWdHc1dv74AiTiJ54FBkptibSvQFHEnv7ATEmXngfpEYX+t2IBFZ7fmMdLWnWqQFQuduYwhLo0iaq4Sq58kJ6MrpJ+7ABShwNz5i4pSjp2HFyKPMsBkr2QFLjrrRHPJsyTyUXW0uUAkBYd6sFb9v6TrslA0HGYvpFKTV1rv//V0o8lQHDImfQFQ52DmVI89FLTQmKsmBmkjdMigHLeCisAlFSJd8pX0po8JU33UFNajuvT8xloyr8K069cjvQjBFDWZ/292CXtZxz5Mq581flQR/gbzjk4z0wqd1kZpauWk1L+kUvP6rjO/eD5DBjRV6fLwVG6GtOvXu5HEqCvSheZ8mUg/VVMZv8PTe/qiVZxKL4AAAAASUVORK5CYII=;clipPath=inset(6.44% 9.62% 7.43% 12.5%);" parent="1" vertex="1">
          <mxGeometry x="707.27" y="-527.21" width="63.46" height="68.16" as="geometry" />
        </mxCell>
        <mxCell id="x5Qx7wWfgq4q1o_DWIzA-33" value="" style="edgeStyle=orthogonalEdgeStyle;rounded=0;orthogonalLoop=1;jettySize=auto;html=1;strokeColor=#FF8000;entryX=1;entryY=0.5;entryDx=0;entryDy=0;" parent="1" source="x5Qx7wWfgq4q1o_DWIzA-7" target="x5Qx7wWfgq4q1o_DWIzA-10" edge="1">
          <mxGeometry relative="1" as="geometry">
            <mxPoint x="831" y="-291.8299999999999" as="targetPoint" />
            <Array as="points">
              <mxPoint x="788" y="-615" />
              <mxPoint x="788" y="-231" />
              <mxPoint x="590" y="-231" />
              <mxPoint x="590" y="-274" />
            </Array>
          </mxGeometry>
        </mxCell>
        <mxCell id="x5Qx7wWfgq4q1o_DWIzA-7" value="" style="shape=image;verticalLabelPosition=bottom;labelBackgroundColor=default;verticalAlign=top;aspect=fixed;imageAspect=0;image=https://monamedia.co/wp-content/uploads/2023/06/cau-truc-asp-net.png;clipPath=inset(9.49% 26% 17.09% 23.67%);" parent="1" vertex="1">
          <mxGeometry x="711" y="-624" width="64" height="49.17" as="geometry" />
        </mxCell>
        <mxCell id="x5Qx7wWfgq4q1o_DWIzA-40" value="" style="edgeStyle=orthogonalEdgeStyle;rounded=0;orthogonalLoop=1;jettySize=auto;html=1;strokeColor=#009900;" parent="1" source="x5Qx7wWfgq4q1o_DWIzA-10" target="x5Qx7wWfgq4q1o_DWIzA-42" edge="1">
          <mxGeometry relative="1" as="geometry">
            <mxPoint x="641.2399999999998" y="-187.5" as="targetPoint" />
            <Array as="points">
              <mxPoint x="545" y="-197" />
              <mxPoint x="829" y="-197" />
            </Array>
          </mxGeometry>
        </mxCell>
        <mxCell id="x5Qx7wWfgq4q1o_DWIzA-10" value="" style="shape=image;verticalLabelPosition=bottom;labelBackgroundColor=default;verticalAlign=top;aspect=fixed;imageAspect=0;image=https://creazilla-store.fra1.digitaloceanspaces.com/icons/3259254/asmx-icon-md.png;" parent="1" vertex="1">
          <mxGeometry x="521" y="-308" width="48.24" height="67" as="geometry" />
        </mxCell>
        <mxCell id="x5Qx7wWfgq4q1o_DWIzA-13" value="" style="shape=image;verticalLabelPosition=bottom;labelBackgroundColor=default;verticalAlign=top;aspect=fixed;imageAspect=0;image=https://cdn2.iconfinder.com/data/icons/basic-1-3/48/protocol_platform_programming_api_software_48225-512.png;clipPath=inset(3.67% 8.33% 5% 8.33%);" parent="1" vertex="1">
          <mxGeometry x="700" y="-313" width="66.6" height="73" as="geometry" />
        </mxCell>
        <mxCell id="x5Qx7wWfgq4q1o_DWIzA-29" value="" style="edgeStyle=orthogonalEdgeStyle;rounded=0;orthogonalLoop=1;jettySize=auto;html=1;strokeColor=#FF8000;" parent="1" source="x5Qx7wWfgq4q1o_DWIzA-14" target="x5Qx7wWfgq4q1o_DWIzA-4" edge="1">
          <mxGeometry relative="1" as="geometry" />
        </mxCell>
        <mxCell id="x5Qx7wWfgq4q1o_DWIzA-31" value="" style="edgeStyle=orthogonalEdgeStyle;rounded=0;orthogonalLoop=1;jettySize=auto;html=1;strokeColor=#FF8000;" parent="1" source="x5Qx7wWfgq4q1o_DWIzA-14" target="x5Qx7wWfgq4q1o_DWIzA-7" edge="1">
          <mxGeometry relative="1" as="geometry">
            <mxPoint x="637.48" y="-386.0999999999999" as="targetPoint" />
            <Array as="points">
              <mxPoint x="638" y="-583" />
            </Array>
          </mxGeometry>
        </mxCell>
        <mxCell id="x5Qx7wWfgq4q1o_DWIzA-14" value="" style="shape=image;verticalLabelPosition=bottom;labelBackgroundColor=default;verticalAlign=top;aspect=fixed;imageAspect=0;image=https://techmeaway.net/wp-content/uploads/2020/02/powershell_logo-1024x1024.png;clipPath=inset(12.67% 0% 12% 0.33%);" parent="1" vertex="1">
          <mxGeometry x="602" y="-519.74" width="70.96" height="53.64" as="geometry" />
        </mxCell>
        <mxCell id="x5Qx7wWfgq4q1o_DWIzA-45" value="" style="edgeStyle=orthogonalEdgeStyle;rounded=0;orthogonalLoop=1;jettySize=auto;html=1;strokeColor=#009900;" parent="1" source="x5Qx7wWfgq4q1o_DWIzA-42" edge="1">
          <mxGeometry relative="1" as="geometry">
            <mxPoint x="447" y="-492" as="targetPoint" />
            <Array as="points">
              <mxPoint x="829" y="-651" />
              <mxPoint x="417" y="-651" />
              <mxPoint x="417" y="-492" />
            </Array>
          </mxGeometry>
        </mxCell>
        <mxCell id="x5Qx7wWfgq4q1o_DWIzA-42" value="" style="shape=image;verticalLabelPosition=bottom;labelBackgroundColor=default;verticalAlign=top;aspect=fixed;imageAspect=0;image=https://logodownload.org/wp-content/uploads/2017/05/microsoft-edge-logo-00.png;clipPath=inset(16.33% 17% 16% 16.67% round 49%);" parent="1" vertex="1">
          <mxGeometry x="801" y="-521" width="55.88" height="57" as="geometry" />
        </mxCell>
      </root>
    </mxGraphModel>
  </diagram>
</mxfile>
